{"glyphs":{"0":{"ha":939,"x_min":90,"x_max":848,"o":"m 492 92 l 514 92 q 630 102 593 92 q 690 138 666 113 q 724 200 714 162 q 733 335 733 238 l 733 673 q 724 808 733 770 q 690 871 714 846 q 627 907 665 897 q 514 918 589 918 l 492 918 l 492 1022 l 518 1022 q 775 946 703 1022 q 848 676 848 870 l 848 334 q 775 64 848 140 q 518 -12 703 -12 l 492 -12 l 492 92 m 454 918 l 425 918 q 308 908 345 918 q 249 872 272 897 q 215 809 225 848 q 205 673 205 771 l 205 336 q 215 200 205 239 q 249 138 225 162 q 308 102 272 113 q 425 92 345 92 l 454 92 l 454 -12 l 421 -12 q 163 64 237 -12 q 90 334 90 140 l 90 676 q 163 946 90 870 q 421 1022 237 1022 l 454 1022 l 454 918 z "},"1":{"ha":939,"x_min":189,"x_max":606,"o":"m 496 0 l 496 909 l 258 671 l 189 739 l 460 1010 l 606 1010 l 606 0 l 496 0 z "},"2":{"ha":939,"x_min":102,"x_max":844,"o":"m 102 0 l 102 171 q 114 296 102 250 q 154 375 126 342 q 221 428 180 406 q 354 475 261 450 l 582 538 q 669 569 635 552 q 715 606 703 587 q 729 644 725 619 q 733 739 733 668 q 724 842 733 812 q 690 889 714 871 q 610 911 670 904 q 441 918 550 918 q 256 886 296 918 q 216 750 216 854 l 216 690 l 102 690 l 102 757 q 173 964 102 907 q 449 1022 245 1022 q 626 1016 567 1022 q 714 997 684 1010 q 816 911 788 964 q 844 729 844 859 q 802 530 844 587 q 642 440 760 473 l 359 361 q 242 305 269 335 q 216 216 216 275 l 216 106 l 844 106 l 844 0 l 102 0 z "},"3":{"ha":939,"x_min":98,"x_max":846,"o":"m 98 335 l 211 335 l 211 244 q 258 123 211 155 q 478 92 306 92 q 646 104 598 92 q 714 146 693 116 q 728 193 724 161 q 732 307 732 224 q 694 432 732 402 q 555 463 656 463 l 401 463 l 401 566 l 542 566 q 678 600 642 566 q 714 746 714 634 q 706 847 714 821 q 679 889 699 873 q 609 910 662 903 q 457 917 557 917 q 271 889 312 917 q 229 785 229 862 l 229 693 l 117 693 l 117 782 q 193 967 117 911 q 454 1022 269 1022 q 632 1016 574 1022 q 724 993 691 1009 q 806 914 782 965 q 829 753 829 863 q 798 584 829 632 q 688 519 767 536 q 811 453 776 502 q 846 296 846 405 q 840 182 846 227 q 819 104 833 137 q 722 14 792 40 q 481 -12 652 -12 q 265 1 321 -12 q 172 47 208 14 q 116 132 134 82 q 98 256 98 182 l 98 335 z "},"4":{"ha":939,"x_min":77,"x_max":880,"o":"m 577 851 l 186 342 l 577 342 l 577 235 l 77 235 l 77 364 l 571 1010 l 577 1010 l 577 851 m 621 1010 l 726 1010 l 726 342 l 880 342 l 880 235 l 726 235 l 726 0 l 621 0 l 621 1010 z "},"5":{"ha":939,"x_min":96,"x_max":827,"o":"m 96 296 l 208 296 l 208 229 q 255 120 208 149 q 461 92 301 92 l 496 92 q 621 105 583 92 q 685 150 658 118 q 706 195 700 168 q 713 290 713 223 l 713 309 l 713 336 q 708 450 713 414 q 690 511 703 486 q 621 572 668 555 q 467 590 574 590 q 279 569 329 590 q 227 493 229 547 l 115 493 l 115 1010 l 782 1010 l 782 903 l 227 903 l 227 612 q 306 671 256 654 q 481 688 355 688 q 646 675 592 688 q 736 635 700 663 q 806 532 785 595 q 827 340 827 470 q 810 158 827 218 q 754 61 793 98 q 652 4 711 21 q 468 -12 593 -12 q 250 5 313 -12 q 150 66 187 23 q 110 140 123 98 q 96 231 96 182 l 96 296 z "},"6":{"ha":939,"x_min":106,"x_max":848,"o":"m 451 517 q 319 506 365 515 q 243 469 267 494 q 218 417 226 452 q 211 315 211 383 q 217 214 211 252 q 235 161 222 176 q 312 111 262 125 q 451 96 351 98 l 451 -14 q 182 52 256 -13 q 106 282 106 117 l 106 746 q 173 960 106 897 q 403 1022 241 1022 l 559 1022 q 781 970 714 1022 q 848 800 848 918 l 848 746 l 736 746 l 736 778 q 692 887 736 859 q 494 916 648 916 q 340 909 389 916 q 268 888 291 903 q 228 836 243 872 q 212 757 212 800 l 212 518 q 300 597 239 574 q 451 618 350 615 l 451 517 m 501 96 l 505 96 q 692 123 650 96 q 734 237 734 151 l 734 382 q 691 490 734 463 q 501 517 651 515 l 501 619 q 767 572 689 618 q 846 414 846 524 l 846 231 q 825 108 846 158 q 762 31 804 58 q 667 -3 724 6 q 501 -14 619 -12 l 501 96 z "},"7":{"ha":939,"x_min":118,"x_max":843,"o":"m 118 903 l 118 1010 l 843 1010 l 843 899 l 355 0 l 221 0 l 725 903 l 118 903 z "},"8":{"ha":939,"x_min":96,"x_max":843,"o":"m 438 917 q 323 909 364 916 q 253 880 273 900 q 231 838 237 866 q 225 733 225 810 q 269 603 225 634 q 438 572 307 575 l 438 471 q 317 463 355 469 q 249 437 271 456 q 218 385 227 419 q 208 292 208 351 q 216 188 208 219 q 240 138 223 156 q 313 104 262 114 q 438 93 357 94 l 438 -12 q 242 7 306 -11 q 135 75 173 27 q 105 148 114 101 q 96 289 96 194 q 127 455 96 406 q 237 525 158 504 q 139 590 168 543 q 111 742 111 637 q 120 865 111 825 q 149 936 128 905 q 251 1003 180 983 q 438 1022 312 1019 l 438 917 m 486 571 q 671 604 630 572 q 714 739 714 635 q 709 826 714 800 q 693 869 705 852 q 625 906 677 895 q 486 917 577 916 l 486 1022 q 660 1010 595 1021 q 758 972 728 998 q 813 893 798 939 q 829 750 829 847 q 800 588 829 638 q 699 525 770 538 q 811 455 779 504 q 843 292 843 406 q 829 130 843 182 q 781 47 814 78 q 675 1 745 15 q 486 -12 613 -11 l 486 93 q 616 101 572 94 q 686 126 664 109 q 721 176 711 145 q 730 279 730 208 q 725 367 730 338 q 707 415 720 395 q 640 458 687 446 q 486 471 595 470 l 486 571 z "},"9":{"ha":939,"x_min":77,"x_max":819,"o":"m 467 490 q 606 501 558 491 q 682 538 659 512 q 706 588 699 555 q 713 692 713 621 q 707 795 713 758 q 690 846 702 831 q 611 898 662 883 q 467 912 569 910 l 467 1022 l 468 1022 q 743 957 667 1022 q 819 726 819 891 l 819 261 q 752 48 819 111 q 522 -14 685 -14 l 366 -14 q 143 38 210 -14 q 77 207 77 89 l 77 261 l 189 261 l 189 229 q 233 119 189 147 q 431 92 277 92 q 585 98 536 92 q 657 119 634 104 q 697 171 682 135 q 713 250 713 207 l 713 492 q 625 412 686 435 q 467 389 574 392 l 467 490 m 410 913 q 233 886 274 912 q 191 770 191 858 l 191 625 q 234 517 191 545 q 410 491 272 494 l 410 389 q 157 436 231 391 q 79 593 79 483 l 79 778 q 100 900 79 850 q 163 977 121 949 q 260 1012 201 1002 q 410 1021 307 1020 l 410 913 z "},"Ď":{"ha":833,"x_min":69,"x_max":764,"o":"m 69 -245 l 69 979 l 764 979 l 764 -245 l 69 -245 m 147 -168 l 686 -168 l 686 901 l 147 901 l 147 -168 z "},"ď":{"ha":833,"x_min":69,"x_max":764,"o":"m 69 -245 l 69 979 l 764 979 l 764 -245 l 69 -245 m 147 -168 l 686 -168 l 686 901 l 147 901 l 147 -168 z "},"Đ":{"ha":833,"x_min":69,"x_max":764,"o":"m 69 -245 l 69 979 l 764 979 l 764 -245 l 69 -245 m 147 -168 l 686 -168 l 686 901 l 147 901 l 147 -168 z "},"―":{"ha":833,"x_min":69,"x_max":764,"o":"m 69 -245 l 69 979 l 764 979 l 764 -245 l 69 -245 m 147 -168 l 686 -168 l 686 901 l 147 901 l 147 -168 z "},"‖":{"ha":833,"x_min":69,"x_max":764,"o":"m 69 -245 l 69 979 l 764 979 l 764 -245 l 69 -245 m 147 -168 l 686 -168 l 686 901 l 147 901 l 147 -168 z "},"‗":{"ha":833,"x_min":69,"x_max":764,"o":"m 69 -245 l 69 979 l 764 979 l 764 -245 l 69 -245 m 147 -168 l 686 -168 l 686 901 l 147 901 l 147 -168 z "},"‛":{"ha":833,"x_min":69,"x_max":764,"o":"m 69 -245 l 69 979 l 764 979 l 764 -245 l 69 -245 m 147 -168 l 686 -168 l 686 901 l 147 901 l 147 -168 z "},"‟":{"ha":833,"x_min":69,"x_max":764,"o":"m 69 -245 l 69 979 l 764 979 l 764 -245 l 69 -245 m 147 -168 l 686 -168 l 686 901 l 147 901 l 147 -168 z "},"‣":{"ha":833,"x_min":69,"x_max":764,"o":"m 69 -245 l 69 979 l 764 979 l 764 -245 l 69 -245 m 147 -168 l 686 -168 l 686 901 l 147 901 l 147 -168 z "},"․":{"ha":833,"x_min":69,"x_max":764,"o":"m 69 -245 l 69 979 l 764 979 l 764 -245 l 69 -245 m 147 -168 l 686 -168 l 686 901 l 147 901 l 147 -168 z "},"‥":{"ha":833,"x_min":69,"x_max":764,"o":"m 69 -245 l 69 979 l 764 979 l 764 -245 l 69 -245 m 147 -168 l 686 -168 l 686 901 l 147 901 l 147 -168 z "},"∃":{"ha":833,"x_min":69,"x_max":764,"o":"m 69 -245 l 69 979 l 764 979 l 764 -245 l 69 -245 m 147 -168 l 686 -168 l 686 901 l 147 901 l 147 -168 z "},"∄":{"ha":833,"x_min":69,"x_max":764,"o":"m 69 -245 l 69 979 l 764 979 l 764 -245 l 69 -245 m 147 -168 l 686 -168 l 686 901 l 147 901 l 147 -168 z "},"∅":{"ha":833,"x_min":69,"x_max":764,"o":"m 69 -245 l 69 979 l 764 979 l 764 -245 l 69 -245 m 147 -168 l 686 -168 l 686 901 l 147 901 l 147 -168 z "},"∐":{"ha":833,"x_min":69,"x_max":764,"o":"m 69 -245 l 69 979 l 764 979 l 764 -245 l 69 -245 m 147 -168 l 686 -168 l 686 901 l 147 901 l 147 -168 z "},"∓":{"ha":833,"x_min":69,"x_max":764,"o":"m 69 -245 l 69 979 l 764 979 l 764 -245 l 69 -245 m 147 -168 l 686 -168 l 686 901 l 147 901 l 147 -168 z "},"∔":{"ha":833,"x_min":69,"x_max":764,"o":"m 69 -245 l 69 979 l 764 979 l 764 -245 l 69 -245 m 147 -168 l 686 -168 l 686 901 l 147 901 l 147 -168 z "},"∖":{"ha":833,"x_min":69,"x_max":764,"o":"m 69 -245 l 69 979 l 764 979 l 764 -245 l 69 -245 m 147 -168 l 686 -168 l 686 901 l 147 901 l 147 -168 z "},"∗":{"ha":833,"x_min":69,"x_max":764,"o":"m 69 -245 l 69 979 l 764 979 l 764 -245 l 69 -245 m 147 -168 l 686 -168 l 686 901 l 147 901 l 147 -168 z "},"∘":{"ha":833,"x_min":69,"x_max":764,"o":"m 69 -245 l 69 979 l 764 979 l 764 -245 l 69 -245 m 147 -168 l 686 -168 l 686 901 l 147 901 l 147 -168 z "},"∛":{"ha":833,"x_min":69,"x_max":764,"o":"m 69 -245 l 69 979 l 764 979 l 764 -245 l 69 -245 m 147 -168 l 686 -168 l 686 901 l 147 901 l 147 -168 z "},"∜":{"ha":833,"x_min":69,"x_max":764,"o":"m 69 -245 l 69 979 l 764 979 l 764 -245 l 69 -245 m 147 -168 l 686 -168 l 686 901 l 147 901 l 147 -168 z "},"∝":{"ha":833,"x_min":69,"x_max":764,"o":"m 69 -245 l 69 979 l 764 979 l 764 -245 l 69 -245 m 147 -168 l 686 -168 l 686 901 l 147 901 l 147 -168 z "},"≡":{"ha":833,"x_min":69,"x_max":764,"o":"m 69 -245 l 69 979 l 764 979 l 764 -245 l 69 -245 m 147 -168 l 686 -168 l 686 901 l 147 901 l 147 -168 z "},"≢":{"ha":833,"x_min":69,"x_max":764,"o":"m 69 -245 l 69 979 l 764 979 l 764 -245 l 69 -245 m 147 -168 l 686 -168 l 686 901 l 147 901 l 147 -168 z "},"≣":{"ha":833,"x_min":69,"x_max":764,"o":"m 69 -245 l 69 979 l 764 979 l 764 -245 l 69 -245 m 147 -168 l 686 -168 l 686 901 l 147 901 l 147 -168 z "}," ":{"ha":469,"x_min":0,"x_max":0,"o":""},"!":{"ha":350,"x_min":122,"x_max":228,"o":"m 129 271 l 122 1010 l 228 1010 l 222 271 l 129 271 m 122 0 l 122 131 l 228 131 l 228 0 l 122 0 z "},"\"":{"ha":386,"x_min":66,"x_max":321,"o":"m 321 972 l 321 597 l 252 597 l 252 972 l 321 972 m 135 972 l 135 597 l 66 597 l 66 972 l 135 972 z "},"#":{"ha":1068,"x_min":79,"x_max":989,"o":"m 661 586 l 481 586 l 415 399 l 596 399 l 661 586 m 623 986 l 509 659 l 688 659 l 804 986 l 890 986 l 775 659 l 989 659 l 964 586 l 749 586 l 682 399 l 913 399 l 888 325 l 657 325 l 542 0 l 454 0 l 571 325 l 389 325 l 272 0 l 186 0 l 301 325 l 79 325 l 106 399 l 326 399 l 395 586 l 155 586 l 179 659 l 419 659 l 536 986 l 623 986 z "},"$":{"ha":939,"x_min":90,"x_max":846,"o":"m 359 917 q 251 881 281 911 q 212 733 212 843 q 252 612 212 643 q 359 579 280 590 l 359 468 q 174 526 229 479 q 104 733 104 585 q 169 956 104 888 q 359 1023 229 1018 l 359 917 m 571 91 q 699 131 663 94 q 737 289 737 172 q 694 423 737 388 q 571 458 659 451 l 571 566 q 777 505 718 556 q 846 293 846 446 q 782 55 846 127 q 572 -17 718 -17 l 571 -17 l 571 91 m 533 461 l 524 461 l 524 90 l 533 90 l 533 -16 q 524 -16 528 -16 l 524 -81 l 427 -81 l 427 -16 q 407 -16 420 -16 q 389 -17 394 -17 q 161 50 231 -17 q 90 268 90 117 q 93 322 90 285 l 93 329 l 199 329 q 198 307 199 321 q 197 285 197 292 q 235 133 197 173 q 376 93 273 93 q 406 93 396 93 q 426 94 416 94 l 426 465 l 416 465 l 416 573 q 427 572 421 572 l 427 918 l 416 918 l 416 1023 l 427 1023 l 427 1093 l 524 1093 l 524 1022 l 551 1022 q 769 966 703 1022 q 835 782 835 910 q 834 761 835 772 q 831 725 833 749 l 726 725 q 726 742 726 732 q 726 768 726 751 q 689 885 726 854 q 543 916 652 916 l 524 916 l 524 568 l 533 568 l 533 461 z "},"%":{"ha":1260,"x_min":50,"x_max":1210,"o":"m 403 -12 l 760 1022 l 856 1022 l 498 -12 l 403 -12 m 262 932 q 163 906 188 932 q 139 785 139 880 l 139 614 q 163 494 139 519 q 262 468 186 468 l 262 376 l 257 376 q 96 424 141 376 q 50 591 50 471 l 50 806 q 96 974 50 926 q 257 1022 142 1022 l 262 1022 l 262 932 m 306 468 l 313 468 q 411 493 388 468 q 435 614 435 518 l 435 785 q 411 906 435 881 q 313 932 387 932 l 306 932 l 306 1022 l 318 1022 q 478 975 433 1022 q 524 806 524 928 l 524 591 q 478 423 524 469 q 318 376 433 376 l 306 376 l 306 468 m 994 79 l 997 79 q 1097 105 1074 79 q 1121 225 1121 130 l 1121 396 q 1097 517 1121 492 q 997 543 1072 543 l 994 543 l 994 633 l 1003 633 q 1164 586 1118 633 q 1210 416 1210 538 l 1210 204 q 1164 35 1210 82 q 1003 -12 1118 -12 l 994 -12 l 994 79 m 956 543 l 949 543 q 850 517 874 543 q 825 396 825 492 l 825 225 q 849 105 825 130 q 949 79 872 79 l 956 79 l 956 -12 l 942 -12 q 781 35 827 -12 q 736 204 736 83 l 736 416 q 782 586 736 538 q 942 633 827 633 l 956 633 l 956 543 z "},"&":{"ha":1010,"x_min":77,"x_max":1043,"o":"m 281 503 q 228 469 247 492 q 192 306 192 426 q 201 185 192 221 q 232 131 210 149 q 307 101 256 110 q 492 93 358 93 q 657 119 602 93 q 728 203 712 144 l 372 500 l 180 697 q 165 804 165 743 q 229 974 165 926 q 467 1022 293 1022 q 701 970 630 1022 q 772 802 772 919 l 772 717 l 660 717 l 660 794 q 629 892 660 867 q 467 917 599 917 q 311 895 340 917 q 282 804 282 872 q 377 629 282 708 q 385 622 382 625 l 749 318 l 749 458 l 861 458 l 861 310 q 859 275 861 295 q 852 231 857 256 l 1043 72 l 978 -7 l 819 125 q 707 17 785 47 q 432 -14 629 -14 q 230 6 292 -14 q 127 72 168 25 q 89 161 101 104 q 77 317 77 218 q 119 508 77 446 q 200 572 146 549 l 281 503 z "},"'":{"ha":200,"x_min":66,"x_max":135,"o":"m 135 972 l 135 597 l 66 597 l 66 972 l 135 972 z "},"(":{"ha":450,"x_min":103,"x_max":392,"o":"m 103 676 q 158 946 103 870 q 349 1022 212 1022 l 392 1022 l 392 917 l 361 917 q 248 875 276 917 q 220 672 220 833 l 220 338 q 248 135 220 177 q 361 93 276 93 l 392 93 l 392 -12 l 349 -12 q 158 64 212 -12 q 103 334 103 140 l 103 676 z "},")":{"ha":450,"x_min":58,"x_max":347,"o":"m 347 676 l 347 334 q 292 64 347 140 q 102 -12 237 -12 l 58 -12 l 58 93 l 89 93 q 202 135 174 93 q 231 338 231 177 l 231 672 q 202 875 231 833 q 89 917 174 917 l 58 917 l 58 1022 l 102 1022 q 292 946 237 1022 q 347 676 347 870 z "},"*":{"ha":694,"x_min":68,"x_max":627,"o":"m 265 704 l 343 660 l 245 492 l 170 536 l 265 704 m 260 711 l 68 711 l 68 802 l 260 802 l 260 711 m 351 660 l 429 704 l 525 538 l 449 493 l 351 660 m 433 711 l 433 802 l 627 802 l 627 711 l 433 711 m 449 1021 l 525 977 l 429 808 l 351 854 l 449 1021 m 170 977 l 245 1021 l 343 854 l 265 810 l 170 977 z "},"+":{"ha":1157,"x_min":172,"x_max":985,"o":"m 612 828 l 612 447 l 985 447 l 985 380 l 612 380 l 612 0 l 546 0 l 546 380 l 172 380 l 172 447 l 546 447 l 546 828 l 612 828 z "},",":{"ha":469,"x_min":175,"x_max":294,"o":"m 175 0 l 175 147 l 294 147 l 294 -31 q 263 -114 294 -84 q 175 -143 232 -143 l 175 -81 q 214 -66 202 -78 q 225 -31 225 -55 l 225 0 l 175 0 z "},"-":{"ha":559,"x_min":90,"x_max":469,"o":"m 90 329 l 90 424 l 469 424 l 469 329 l 90 329 z "},".":{"ha":469,"x_min":90,"x_max":208,"o":"m 90 0 l 90 147 l 208 147 l 208 0 l 90 0 z "},"/":{"ha":370,"x_min":-32,"x_max":421,"o":"m 61 -129 l -32 -129 l 326 1022 l 421 1022 l 61 -129 z "},":":{"ha":469,"x_min":175,"x_max":294,"o":"m 175 0 l 175 147 l 294 147 l 294 0 l 175 0 m 175 566 l 175 714 l 294 714 l 294 566 l 175 566 z "},";":{"ha":469,"x_min":175,"x_max":294,"o":"m 175 566 l 175 714 l 294 714 l 294 566 l 175 566 m 175 0 l 175 147 l 294 147 l 294 -31 q 263 -114 294 -84 q 175 -143 232 -143 l 175 -81 q 214 -66 202 -78 q 225 -31 225 -55 l 225 0 l 175 0 z "},"<":{"ha":1157,"x_min":179,"x_max":978,"o":"m 978 696 l 285 414 l 978 134 l 978 60 l 179 386 l 179 441 l 978 770 l 978 696 z "},"=":{"ha":1157,"x_min":172,"x_max":985,"o":"m 985 321 l 985 254 l 172 254 l 172 321 l 985 321 m 985 574 l 985 507 l 172 507 l 172 574 l 985 574 z "},">":{"ha":1157,"x_min":179,"x_max":978,"o":"m 978 441 l 978 386 l 179 60 l 179 134 l 872 414 l 179 696 l 179 770 l 978 441 z "},"?":{"ha":721,"x_min":53,"x_max":681,"o":"m 260 0 l 260 129 l 372 129 l 372 0 l 260 0 m 260 277 l 260 357 q 288 454 260 417 q 420 536 315 490 l 428 540 q 547 612 526 582 q 566 667 560 631 q 572 758 572 703 q 539 884 572 850 q 410 918 507 918 q 261 913 304 918 q 201 895 218 907 q 172 845 181 879 q 163 750 163 811 q 163 719 163 730 q 163 697 163 707 l 53 697 l 53 798 q 124 971 53 920 q 375 1022 195 1022 q 617 965 554 1022 q 681 755 681 907 q 654 569 681 629 q 561 479 628 510 q 505 454 541 470 q 372 328 372 396 l 372 277 l 260 277 z "},"@":{"ha":1389,"x_min":79,"x_max":1310,"o":"m 650 918 q 537 892 591 909 q 359 790 439 858 q 209 593 260 705 q 158 347 158 481 q 199 140 158 229 q 323 -17 239 52 q 489 -104 393 -73 q 650 -134 566 -129 l 650 -191 q 471 -160 553 -185 q 285 -66 366 -129 q 130 119 180 14 q 79 364 79 224 q 138 623 79 503 q 309 836 196 743 q 511 948 398 910 q 650 979 577 970 l 650 918 m 703 -135 q 920 -101 814 -134 q 1124 -4 1031 -68 l 1150 -41 q 939 -154 1050 -117 q 707 -192 828 -192 l 703 -192 l 703 -135 m 650 610 q 545 530 589 589 q 476 301 476 439 q 513 184 476 226 q 616 142 551 142 q 650 144 633 142 l 650 89 q 606 85 629 85 q 448 141 502 85 q 393 307 393 198 q 485 570 393 463 q 650 672 555 653 l 650 610 m 703 162 q 745 191 725 174 q 821 318 801 239 l 863 486 q 811 585 850 549 q 717 621 772 621 q 703 620 710 621 l 703 677 l 708 677 q 815 650 772 677 q 880 567 859 622 l 921 652 l 985 652 l 890 271 q 881 228 884 241 q 879 208 879 216 q 898 162 879 179 q 951 146 918 146 q 1024 160 987 146 q 1095 201 1061 174 q 1197 340 1160 254 q 1234 532 1234 427 q 1099 814 1234 704 q 754 925 965 925 q 703 924 728 925 l 703 985 q 755 986 729 986 q 964 956 865 986 q 1133 872 1063 926 q 1265 718 1221 805 q 1310 528 1310 630 q 1267 318 1310 412 q 1145 160 1225 224 q 1044 104 1097 123 q 935 85 990 85 q 837 110 869 85 q 804 187 804 136 q 805 197 804 190 q 806 207 806 203 q 720 117 771 148 q 703 107 711 112 l 703 162 z "},"A":{"ha":961,"x_min":16,"x_max":947,"o":"m 700 358 l 498 903 l 485 903 l 520 1010 l 572 1010 l 947 0 l 832 0 l 736 258 l 274 258 l 307 358 l 700 358 m 131 0 l 16 0 l 389 1010 l 481 1010 l 157 71 l 131 0 z "},"B":{"ha":974,"x_min":125,"x_max":889,"o":"m 287 574 l 599 574 q 718 606 688 574 q 749 746 749 637 q 716 876 749 850 q 550 903 684 903 l 287 903 l 287 1010 l 595 1010 q 811 960 758 1010 q 864 758 864 911 q 838 594 864 641 q 746 529 812 547 q 858 457 826 509 q 889 282 889 405 q 823 58 889 115 q 559 0 758 0 l 287 0 l 287 106 l 603 106 q 738 137 703 106 q 772 297 772 168 q 734 438 772 406 q 533 471 695 471 l 287 471 l 287 574 m 227 0 l 125 0 l 125 1010 l 227 1010 l 227 0 z "},"C":{"ha":949,"x_min":90,"x_max":882,"o":"m 90 676 q 164 946 90 870 q 427 1022 239 1022 l 545 1022 q 806 957 731 1022 q 882 734 882 891 l 882 690 l 766 690 l 766 718 q 720 875 766 833 q 536 917 673 917 l 458 917 q 325 906 367 917 q 256 868 283 895 q 217 801 228 842 q 205 648 205 759 l 205 361 q 217 209 205 251 q 256 142 228 168 q 323 104 283 115 q 458 93 363 93 l 536 93 q 722 137 676 93 q 768 306 768 181 q 768 335 768 325 q 767 354 768 345 l 882 354 l 882 288 q 809 54 882 119 q 545 -12 736 -12 l 427 -12 q 164 64 239 -12 q 90 334 90 140 l 90 676 z "},"D":{"ha":1042,"x_min":122,"x_max":953,"o":"m 227 0 l 122 0 l 122 1010 l 227 1010 l 227 0 m 290 100 l 591 100 q 787 149 737 100 q 836 338 836 199 l 836 664 q 787 860 836 810 q 591 909 738 909 l 290 909 l 290 1010 l 610 1010 q 876 935 800 1010 q 953 672 953 859 l 953 339 q 876 76 953 151 q 610 0 799 0 l 290 0 l 290 100 z "},"E":{"ha":888,"x_min":122,"x_max":831,"o":"m 122 0 l 122 1010 l 831 1010 l 831 903 l 233 903 l 233 572 l 814 572 l 814 469 l 233 469 l 233 106 l 831 106 l 831 0 l 122 0 z "},"F":{"ha":823,"x_min":122,"x_max":753,"o":"m 122 0 l 122 1010 l 753 1010 l 753 903 l 233 903 l 233 572 l 737 572 l 737 469 l 233 469 l 233 0 l 122 0 z "},"G":{"ha":1019,"x_min":83,"x_max":939,"o":"m 83 676 q 163 946 83 869 q 447 1022 243 1022 l 575 1022 q 850 959 762 1022 q 939 761 939 895 l 939 718 l 823 718 l 823 730 q 770 876 823 835 q 568 917 718 917 l 479 917 q 330 905 376 917 q 253 867 285 894 q 212 800 224 842 q 200 648 200 758 l 200 361 q 212 210 200 252 q 253 143 224 168 q 329 104 285 116 q 479 93 373 93 l 568 93 q 705 103 665 93 q 774 138 745 113 q 812 201 801 161 q 823 338 823 241 l 823 400 l 543 400 l 543 503 l 939 503 l 939 334 q 859 64 939 140 q 575 -12 779 -12 l 447 -12 q 163 64 243 -12 q 83 334 83 140 l 83 676 z "},"H":{"ha":1048,"x_min":122,"x_max":926,"o":"m 122 0 l 122 1010 l 233 1010 l 233 574 l 815 574 l 815 1010 l 926 1010 l 926 0 l 815 0 l 815 468 l 233 468 l 233 0 l 122 0 z "},"I":{"ha":357,"x_min":122,"x_max":235,"o":"m 122 0 l 122 1010 l 235 1010 l 235 0 l 122 0 z "},"J":{"ha":819,"x_min":32,"x_max":707,"o":"m 32 354 l 144 354 l 144 338 q 180 137 144 180 q 329 93 216 93 l 410 93 q 559 136 523 93 q 595 338 595 180 l 595 1010 l 707 1010 l 707 304 q 641 61 707 134 q 419 -12 574 -12 l 319 -12 q 95 63 159 -12 q 32 334 32 139 l 32 354 z "},"K":{"ha":929,"x_min":122,"x_max":936,"o":"m 122 0 l 122 1010 l 233 1010 l 233 582 l 319 582 l 729 1010 l 876 1010 l 411 528 l 936 0 l 783 0 l 319 473 l 233 473 l 233 0 l 122 0 z "},"L":{"ha":829,"x_min":122,"x_max":804,"o":"m 122 0 l 122 1010 l 232 1010 l 232 106 l 804 106 l 804 0 l 122 0 z "},"M":{"ha":1301,"x_min":122,"x_max":1179,"o":"m 122 0 l 122 1010 l 306 1010 l 652 110 l 994 1010 l 1179 1010 l 1179 0 l 1068 0 l 1068 916 l 720 0 l 582 0 l 233 916 l 233 0 l 122 0 z "},"N":{"ha":1076,"x_min":122,"x_max":953,"o":"m 122 0 l 122 1010 l 294 1010 l 842 109 l 842 1010 l 953 1010 l 953 0 l 781 0 l 233 903 l 233 0 l 122 0 z "},"O":{"ha":1035,"x_min":90,"x_max":946,"o":"m 473 917 q 336 905 377 916 q 260 867 292 894 q 218 797 230 841 q 205 647 205 753 l 205 361 q 218 212 205 255 q 260 143 230 169 q 336 104 292 116 q 473 93 377 94 l 473 -12 l 454 -12 q 170 64 250 -12 q 90 334 90 140 l 90 676 q 170 946 90 869 q 454 1022 250 1022 l 473 1022 l 473 917 m 545 93 l 549 93 q 700 104 655 93 q 777 143 745 116 q 818 210 806 168 q 829 361 829 252 l 829 648 q 817 799 829 755 q 775 868 805 842 q 700 906 744 895 q 549 917 656 917 l 545 917 l 545 1022 l 582 1022 q 867 947 788 1022 q 946 676 946 871 l 946 334 q 866 64 946 140 q 582 -12 785 -12 l 545 -12 l 545 93 z "},"P":{"ha":909,"x_min":122,"x_max":846,"o":"m 277 498 l 546 498 q 694 526 659 498 q 729 627 729 554 l 729 775 q 695 876 729 848 q 546 903 661 903 l 277 903 l 277 1010 l 547 1010 q 782 959 718 1010 q 846 779 846 909 l 846 627 q 782 443 846 494 q 547 392 719 392 l 277 392 l 277 498 m 220 0 l 122 0 l 122 1010 l 220 1010 l 220 0 z "},"Q":{"ha":1035,"x_min":90,"x_max":952,"o":"m 624 371 l 952 45 l 888 -20 l 555 301 l 624 371 m 473 917 q 336 905 377 916 q 260 867 292 894 q 218 797 230 841 q 205 647 205 753 l 205 361 q 218 212 205 255 q 260 143 230 169 q 336 104 292 116 q 486 93 380 93 l 574 93 q 688 96 650 93 l 774 10 q 740 -1 758 3 q 582 -12 690 -12 l 454 -12 q 170 64 250 -12 q 90 334 90 140 l 90 676 q 170 946 90 869 q 454 1022 250 1022 l 473 1022 l 473 917 m 539 1022 l 582 1022 q 867 947 788 1022 q 946 676 946 871 l 946 334 q 935 189 946 237 q 922 154 930 170 l 825 235 q 827 252 826 243 q 829 338 829 291 l 829 648 q 817 799 829 755 q 775 868 805 842 q 700 906 744 895 q 549 917 656 917 l 539 917 l 539 1022 z "},"R":{"ha":971,"x_min":122,"x_max":876,"o":"m 233 0 l 122 0 l 122 1010 l 233 1010 l 233 0 m 281 498 l 555 498 q 721 530 682 498 q 760 642 760 561 l 760 760 q 722 872 760 842 q 555 903 684 903 l 281 903 l 281 1010 l 578 1010 q 812 959 748 1010 q 876 779 876 909 l 876 627 q 844 502 876 547 q 746 446 812 457 q 847 384 818 429 q 876 243 876 339 l 876 0 l 760 0 l 760 208 q 725 355 760 317 q 591 393 691 393 l 281 393 l 281 498 z "},"S":{"ha":990,"x_min":94,"x_max":893,"o":"m 94 329 l 207 329 l 207 310 q 220 177 207 220 q 265 117 234 134 q 340 97 290 103 q 550 92 391 92 q 684 103 636 92 q 754 139 731 114 q 773 185 767 153 q 779 273 779 218 q 756 415 779 386 q 667 449 734 444 l 355 473 q 162 543 216 484 q 109 742 109 602 q 126 884 109 830 q 183 972 144 937 q 269 1011 214 1000 q 463 1022 323 1022 l 498 1022 q 717 1007 654 1022 q 823 956 781 992 q 866 886 852 931 q 880 774 880 841 q 880 744 880 754 q 879 725 880 733 l 766 725 l 766 750 q 760 835 766 806 q 739 879 753 865 q 664 908 718 900 q 460 917 610 917 q 264 882 304 917 q 224 741 224 846 q 250 621 224 654 q 351 582 276 588 l 668 555 q 843 487 793 545 q 893 293 893 429 q 880 144 893 194 q 838 61 867 94 q 739 3 801 20 q 513 -14 677 -14 l 463 -14 q 265 1 323 -14 q 168 50 207 15 q 112 138 130 83 q 94 279 94 194 l 94 329 z "},"T":{"ha":725,"x_min":-16,"x_max":741,"o":"m -16 903 l -16 1010 l 741 1010 l 741 903 l 418 903 l 418 0 l 306 0 l 306 903 l -16 903 z "},"U":{"ha":1039,"x_min":113,"x_max":926,"o":"m 113 1010 l 225 1010 l 225 347 q 236 211 225 250 q 272 149 246 172 q 337 114 299 124 q 467 104 374 104 l 572 104 q 703 114 665 104 q 768 149 741 124 q 804 210 793 172 q 814 347 814 249 l 814 1010 l 926 1010 l 926 334 q 850 64 926 140 q 581 -12 774 -12 l 458 -12 q 189 64 265 -12 q 113 334 113 140 l 113 1010 z "},"V":{"ha":903,"x_min":1,"x_max":885,"o":"m 1 1010 l 121 1010 l 443 104 l 766 1010 l 885 1010 l 515 0 l 371 0 l 1 1010 z "},"W":{"ha":1398,"x_min":41,"x_max":1358,"o":"m 41 1010 l 157 1010 l 387 136 l 619 1010 l 778 1010 l 1011 136 l 1242 1010 l 1358 1010 l 1083 0 l 940 0 l 699 889 l 461 0 l 313 0 l 41 1010 z "},"X":{"ha":885,"x_min":-9,"x_max":893,"o":"m -9 0 l 386 530 l 29 1010 l 158 1010 l 443 614 l 726 1010 l 857 1010 l 500 532 l 893 0 l 766 0 l 444 450 l 118 0 l -9 0 z "},"Y":{"ha":827,"x_min":-60,"x_max":885,"o":"m 468 0 l 358 0 l 358 447 l -60 1010 l 72 1010 l 412 539 l 753 1010 l 885 1010 l 468 449 l 468 0 z "},"Z":{"ha":903,"x_min":65,"x_max":832,"o":"m 65 0 l 65 121 l 714 909 l 94 909 l 94 1010 l 832 1010 l 832 892 l 187 106 l 832 106 l 832 0 l 65 0 z "},"[":{"ha":450,"x_min":103,"x_max":392,"o":"m 103 1010 l 392 1010 l 392 903 l 211 903 l 211 107 l 392 107 l 392 0 l 103 0 l 103 1010 z "},"\\":{"ha":370,"x_min":-33,"x_max":421,"o":"m 421 -129 l 326 -129 l -33 1022 l 62 1022 l 421 -129 z "},"]":{"ha":450,"x_min":58,"x_max":347,"o":"m 347 1010 l 347 0 l 58 0 l 58 107 l 239 107 l 239 903 l 58 903 l 58 1010 l 347 1010 z "},"^":{"ha":1389,"x_min":286,"x_max":1101,"o":"m 742 989 l 1101 611 l 1004 611 l 694 920 l 383 611 l 286 611 l 647 989 l 742 989 z "},"_":{"ha":694,"x_min":0,"x_max":694,"o":"m 694 -260 l 694 -328 l 0 -328 l 0 -260 l 694 -260 z "},"`":{"ha":694,"x_min":187,"x_max":432,"o":"m 370 799 l 187 1035 l 290 1035 l 432 799 l 370 799 z "},"a":{"ha":785,"x_min":75,"x_max":682,"o":"m 331 355 q 221 330 251 351 q 186 229 186 303 q 223 117 186 145 q 331 90 253 94 l 331 -9 q 132 39 184 -5 q 75 216 75 86 q 89 334 75 292 q 132 403 102 377 q 208 434 158 425 q 331 443 252 441 l 331 355 m 375 89 q 524 113 472 90 q 576 182 576 137 l 576 257 q 525 332 576 308 q 375 355 476 354 l 375 443 q 500 427 455 441 q 576 374 551 411 l 576 497 q 543 610 576 585 q 372 636 509 636 q 241 615 273 636 q 207 538 208 595 l 102 538 l 102 554 q 161 685 102 646 q 366 724 220 724 q 538 714 479 724 q 625 684 597 705 q 669 623 656 659 q 682 500 682 587 l 682 0 l 586 0 l 582 75 q 505 11 557 31 q 375 -9 456 -7 l 375 89 z "},"b":{"ha":798,"x_min":111,"x_max":717,"o":"m 271 134 q 435 86 323 86 q 573 123 538 86 q 607 296 607 161 l 607 418 q 573 591 607 553 q 435 628 538 628 q 271 581 323 628 l 271 680 q 299 698 284 690 q 439 724 351 724 q 654 661 591 724 q 717 441 717 597 l 717 272 q 654 54 717 117 q 439 -9 591 -9 q 292 20 347 -9 q 271 33 281 26 l 271 134 m 214 105 q 212 110 213 107 l 212 0 l 111 0 l 111 1010 l 214 1010 l 214 105 z "},"c":{"ha":785,"x_min":81,"x_max":704,"o":"m 368 -9 q 144 53 208 -9 q 81 272 81 115 l 81 441 q 144 661 81 599 q 367 724 208 724 l 416 724 q 634 666 568 724 q 704 475 701 608 l 595 475 q 555 594 591 562 q 416 627 519 627 l 367 627 q 224 590 258 627 q 191 418 191 553 l 191 296 q 224 123 191 159 q 367 86 258 86 l 416 86 q 558 122 521 86 q 595 252 595 157 l 595 264 l 704 264 l 704 250 q 638 51 704 111 q 418 -9 572 -9 l 368 -9 z "},"d":{"ha":798,"x_min":81,"x_max":686,"o":"m 539 566 q 529 578 534 572 q 363 628 477 628 q 225 591 259 628 q 191 418 191 553 l 191 296 q 225 123 191 161 q 363 86 259 86 q 529 137 477 86 q 539 148 534 142 l 539 42 q 506 19 524 28 q 359 -9 452 -9 q 144 54 207 -9 q 81 272 81 117 l 81 441 q 144 660 81 597 q 359 724 207 724 q 499 698 448 724 q 539 669 521 686 l 539 566 m 583 1010 l 686 1010 l 686 0 l 585 0 l 585 110 q 583 106 584 109 l 583 1010 z "},"e":{"ha":785,"x_min":81,"x_max":704,"o":"m 426 427 l 595 427 l 595 454 q 559 591 595 555 q 426 627 524 625 l 426 724 q 640 661 578 722 q 704 441 704 599 l 704 334 l 426 333 l 426 427 m 375 627 l 367 627 q 226 591 261 627 q 191 454 191 555 l 191 427 l 375 427 l 375 333 l 191 333 q 190 309 190 322 q 189 272 189 296 q 224 124 189 161 q 367 86 260 86 l 375 86 l 375 -9 l 368 -9 q 144 53 208 -9 q 81 272 81 115 l 81 441 q 144 661 81 599 q 367 724 208 724 l 375 724 l 375 627 m 426 86 q 549 114 514 87 q 593 210 587 141 l 703 210 q 628 42 694 94 q 426 -9 564 -8 l 426 86 z "},"f":{"ha":467,"x_min":32,"x_max":463,"o":"m 32 624 l 32 714 l 132 714 q 131 733 132 722 q 131 762 131 743 q 179 954 131 899 q 345 1010 227 1010 q 404 1008 375 1010 q 463 1004 433 1007 l 463 908 q 438 909 454 909 q 374 911 391 911 q 264 886 292 911 q 237 762 237 861 l 237 714 l 463 714 l 463 624 l 237 624 l 237 0 l 132 0 l 132 624 l 32 624 z "},"g":{"ha":817,"x_min":102,"x_max":707,"o":"m 359 627 q 245 591 275 623 q 210 418 210 553 l 210 296 q 245 124 210 161 q 359 87 275 91 l 359 -9 q 164 54 222 -5 q 102 272 102 117 l 102 441 q 164 661 102 597 q 359 724 222 720 l 359 627 m 422 87 q 550 137 507 95 q 602 298 602 187 l 602 415 q 550 578 602 527 q 422 627 507 619 l 422 722 q 526 694 484 716 q 606 603 580 665 l 606 714 l 707 714 l 707 8 q 645 -211 707 -149 q 428 -273 583 -273 l 422 -273 l 422 -176 l 428 -176 q 562 -146 522 -176 q 602 -46 602 -115 l 602 102 q 520 17 572 43 q 422 -7 481 -3 l 422 87 m 359 -273 q 175 -222 235 -270 q 102 -54 111 -172 l 210 -54 q 252 -149 216 -123 q 359 -176 283 -173 l 359 -273 z "},"h":{"ha":800,"x_min":110,"x_max":697,"o":"m 110 0 l 110 1010 l 211 1010 l 211 616 q 294 697 237 671 q 444 724 351 724 q 641 667 585 724 q 697 468 697 610 l 697 0 l 591 0 l 591 446 q 558 593 591 557 q 431 628 526 628 q 267 577 319 628 q 215 415 215 526 l 215 0 l 110 0 z "},"i":{"ha":325,"x_min":110,"x_max":215,"o":"m 110 890 l 110 1010 l 215 1010 l 215 890 l 110 890 m 110 0 l 110 714 l 215 714 l 215 0 l 110 0 z "},"j":{"ha":345,"x_min":43,"x_max":237,"o":"m 237 -104 q 201 -231 237 -189 q 93 -273 165 -273 q 71 -272 83 -273 q 43 -269 58 -271 l 43 -186 l 79 -186 q 120 -162 109 -186 q 131 -47 131 -138 l 131 714 l 237 714 l 237 -104 m 131 890 l 131 1010 l 237 1010 l 237 890 l 131 890 z "},"k":{"ha":672,"x_min":110,"x_max":654,"o":"m 110 0 l 110 1010 l 215 1010 l 215 436 l 248 436 l 481 714 l 602 714 l 332 396 l 654 0 l 521 0 l 248 339 l 215 339 l 215 0 l 110 0 z "},"l":{"ha":325,"x_min":110,"x_max":215,"o":"m 110 0 l 110 1010 l 215 1010 l 215 0 l 110 0 z "},"m":{"ha":1227,"x_min":125,"x_max":1125,"o":"m 125 0 l 125 714 l 228 714 l 228 616 q 303 697 250 671 q 441 724 355 724 q 584 696 532 724 q 660 606 635 668 q 742 696 691 668 q 876 724 793 724 q 1071 668 1017 724 q 1125 468 1125 612 l 1125 0 l 1019 0 l 1019 435 q 988 591 1019 554 q 868 628 958 628 q 724 577 769 628 q 679 415 679 527 l 679 0 l 576 0 l 576 484 q 546 598 576 568 q 428 628 515 628 q 278 576 326 628 q 231 415 231 525 l 231 0 l 125 0 z "},"n":{"ha":800,"x_min":110,"x_max":697,"o":"m 110 0 l 110 714 l 211 714 l 211 616 q 294 697 237 671 q 444 724 351 724 q 641 667 585 724 q 697 468 697 610 l 697 0 l 591 0 l 591 446 q 558 593 591 557 q 431 628 526 628 q 267 577 319 628 q 215 415 215 526 l 215 0 l 110 0 z "},"o":{"ha":785,"x_min":81,"x_max":704,"o":"m 359 627 q 224 590 256 625 q 191 418 191 553 l 191 296 q 224 123 191 159 q 359 86 257 87 l 359 -9 q 144 53 206 -7 q 81 272 81 115 l 81 441 q 144 661 81 599 q 359 724 206 722 l 359 627 m 416 86 q 560 123 526 86 q 595 296 595 161 l 595 418 q 561 590 595 553 q 416 627 526 627 l 416 724 q 640 661 576 724 q 704 441 704 599 l 704 272 q 641 53 704 115 q 418 -9 577 -9 l 416 -9 l 416 86 z "},"p":{"ha":798,"x_min":111,"x_max":717,"o":"m 262 143 q 269 137 265 140 q 435 86 320 86 q 573 123 538 86 q 607 296 607 161 l 607 418 q 573 591 607 553 q 435 628 538 628 q 269 578 320 628 q 262 571 265 574 l 262 673 q 293 694 276 686 q 439 724 347 724 q 654 661 591 724 q 717 441 717 597 l 717 272 q 654 54 717 117 q 439 -9 591 -9 q 299 17 351 -9 q 262 42 279 26 l 262 143 m 208 -273 l 111 -273 l 111 714 l 208 714 l 208 -273 z "},"q":{"ha":798,"x_min":81,"x_max":686,"o":"m 539 566 q 529 578 534 572 q 363 628 477 628 q 225 591 259 628 q 191 418 191 553 l 191 296 q 225 123 191 161 q 363 86 259 86 q 529 137 477 86 q 539 148 534 142 l 539 45 q 499 17 521 28 q 359 -9 448 -9 q 144 54 207 -9 q 81 272 81 117 l 81 441 q 144 660 81 597 q 359 724 207 724 q 505 694 451 724 q 539 670 524 684 l 539 566 m 589 714 l 686 714 l 686 -273 l 589 -273 l 589 714 z "},"r":{"ha":650,"x_min":109,"x_max":618,"o":"m 109 0 l 109 714 l 211 714 l 211 616 q 281 698 233 672 q 407 724 328 724 q 571 667 524 724 q 618 468 618 611 l 618 463 l 511 463 l 511 484 q 484 598 511 569 q 382 628 457 628 q 254 578 294 628 q 215 415 215 528 l 215 0 l 109 0 z "},"s":{"ha":810,"x_min":83,"x_max":707,"o":"m 83 212 l 191 212 l 191 196 q 231 105 191 130 q 395 81 272 81 q 564 106 532 81 q 596 203 596 131 q 570 296 596 273 q 439 325 544 319 q 335 329 401 327 q 164 349 191 333 q 106 410 123 371 q 89 521 89 448 q 149 682 89 640 q 415 724 210 724 q 631 684 574 724 q 688 543 688 644 l 582 543 l 582 550 q 541 615 582 597 q 378 633 500 633 q 227 612 260 633 q 195 521 195 590 q 201 462 195 479 q 222 436 207 445 q 363 416 254 419 q 406 415 391 416 q 547 406 496 412 q 619 390 597 400 q 687 328 667 368 q 707 210 707 287 q 687 90 707 131 q 616 18 667 50 q 541 -3 593 3 q 396 -9 489 -9 q 145 34 206 -9 q 83 193 83 78 l 83 212 z "},"t":{"ha":685,"x_min":39,"x_max":602,"o":"m 39 624 l 39 714 l 126 714 l 126 875 l 232 875 l 232 714 l 582 714 l 582 624 l 232 624 l 232 231 q 259 116 232 146 q 364 86 287 86 q 468 115 441 86 q 494 231 494 144 l 494 252 l 602 252 l 602 245 q 552 43 602 95 q 345 -9 502 -9 q 174 46 222 -9 q 126 245 126 101 l 126 624 l 39 624 z "},"u":{"ha":800,"x_min":103,"x_max":692,"o":"m 692 714 l 692 0 l 590 0 l 590 97 q 507 17 565 43 q 355 -9 450 -9 q 159 47 216 -9 q 103 245 103 104 l 103 714 l 208 714 l 208 268 q 241 121 208 157 q 371 86 275 86 q 533 137 482 86 q 585 298 585 188 l 585 714 l 692 714 z "},"v":{"ha":656,"x_min":9,"x_max":643,"o":"m 9 714 l 115 714 l 328 100 l 541 714 l 643 714 l 397 0 l 260 0 l 9 714 z "},"w":{"ha":1083,"x_min":40,"x_max":1043,"o":"m 40 714 l 139 714 l 302 100 l 467 714 l 612 714 l 778 100 l 942 714 l 1043 714 l 850 0 l 704 0 l 541 612 l 374 0 l 231 0 l 40 714 z "},"x":{"ha":703,"x_min":24,"x_max":679,"o":"m 24 0 l 294 382 l 58 714 l 178 714 l 350 464 l 522 714 l 642 714 l 408 382 l 679 0 l 559 0 l 350 301 l 144 0 l 24 0 z "},"y":{"ha":677,"x_min":32,"x_max":665,"o":"m 32 714 l 138 714 l 350 100 l 561 714 l 665 714 l 396 -62 q 306 -233 352 -189 q 183 -278 260 -278 q 158 -277 172 -278 q 127 -273 144 -276 l 128 -180 q 140 -181 133 -181 q 160 -182 147 -182 q 236 -160 209 -182 q 286 -74 262 -138 l 313 0 l 281 0 l 32 714 z "},"z":{"ha":717,"x_min":81,"x_max":652,"o":"m 81 0 l 81 115 l 522 616 l 102 616 l 102 714 l 652 714 l 652 615 l 195 96 l 652 96 l 652 0 l 81 0 z "},"{":{"ha":694,"x_min":118,"x_max":579,"o":"m 579 929 l 554 929 q 434 896 465 929 q 403 757 403 862 l 403 593 q 373 430 403 479 q 269 359 344 381 q 373 290 344 338 q 403 126 403 241 l 403 -37 q 433 -176 403 -142 q 549 -210 464 -210 q 564 -209 553 -210 q 579 -208 574 -208 l 579 -281 l 547 -281 q 367 -232 414 -281 q 319 -31 319 -182 l 319 135 q 281 282 319 239 q 149 325 242 325 q 134 324 144 325 q 118 323 124 323 l 118 397 q 134 397 124 397 q 149 396 144 396 q 281 439 242 396 q 319 586 319 481 l 319 750 q 367 951 319 901 q 547 1002 414 1002 l 579 1002 l 579 929 z "},"|":{"ha":694,"x_min":311,"x_max":385,"o":"m 385 1061 l 385 -328 l 311 -328 l 311 1061 l 385 1061 z "},"}":{"ha":694,"x_min":117,"x_max":578,"o":"m 376 750 l 376 586 q 415 439 376 481 q 547 396 454 396 q 562 397 552 396 q 578 397 572 397 l 578 323 q 562 324 572 323 q 547 325 552 325 q 415 282 454 325 q 376 135 376 239 l 376 -31 q 329 -231 376 -182 q 149 -281 282 -281 l 117 -281 l 117 -208 l 143 -208 q 262 -175 231 -208 q 293 -37 293 -142 l 293 126 q 322 290 293 242 q 427 359 351 338 q 322 429 351 381 q 293 593 293 477 l 293 757 q 262 897 293 863 q 147 930 232 930 q 132 930 142 930 q 117 929 122 929 l 117 1002 l 149 1002 q 329 951 281 1002 q 376 750 376 901 z "},"~":{"ha":1157,"x_min":121,"x_max":1038,"o":"m 1038 432 q 903 359 968 383 q 775 335 838 335 q 599 374 708 335 q 579 380 585 378 q 568 385 576 382 q 383 428 449 428 q 264 402 327 428 q 121 319 202 376 l 121 396 q 258 470 193 446 q 383 494 323 494 q 568 453 454 494 q 580 448 575 450 q 601 441 586 446 q 775 400 714 400 q 895 426 833 400 q 1038 509 958 452 l 1038 432 z "},"Ä":{"ha":961,"x_min":16,"x_max":947,"o":"m 700 358 l 498 903 l 485 903 l 520 1010 l 572 1010 l 947 0 l 832 0 l 736 258 l 274 258 l 307 358 l 700 358 m 131 0 l 16 0 l 389 1010 l 481 1010 l 157 71 l 131 0 m 542 1148 l 542 1259 l 637 1259 l 637 1148 l 542 1148 m 324 1148 l 324 1259 l 420 1259 l 420 1148 l 324 1148 z "},"Å":{"ha":961,"x_min":16,"x_max":947,"o":"m 382 1211 q 412 1139 382 1168 q 485 1109 441 1109 q 556 1139 527 1109 q 586 1211 586 1168 q 557 1283 586 1254 q 485 1312 528 1312 q 412 1283 441 1312 q 382 1211 382 1254 m 321 1211 q 368 1328 321 1280 q 484 1375 415 1375 q 600 1328 552 1375 q 647 1211 647 1280 q 600 1096 647 1143 q 484 1048 552 1048 q 368 1095 414 1048 q 321 1211 321 1142 m 262 358 l 700 358 l 498 903 l 463 903 l 262 358 m 16 0 l 389 1010 l 572 1010 l 947 0 l 832 0 l 736 258 l 225 258 l 131 0 l 16 0 z "},"Ç":{"ha":949,"x_min":90,"x_max":882,"o":"m 90 676 q 164 946 90 870 q 427 1022 239 1022 l 545 1022 q 806 957 731 1022 q 882 734 882 891 l 882 690 l 766 690 l 766 718 q 720 875 766 833 q 536 917 673 917 l 458 917 q 325 906 367 917 q 256 868 283 895 q 217 801 228 842 q 205 648 205 759 l 205 361 q 217 209 205 251 q 256 142 228 168 q 323 104 283 115 q 458 93 363 93 l 536 93 q 722 137 676 93 q 768 306 768 181 q 768 335 768 325 q 767 354 768 345 l 882 354 l 882 288 q 809 54 882 119 q 545 -12 736 -12 l 427 -12 q 164 64 239 -12 q 90 334 90 140 l 90 676 m 498 0 l 498 -78 l 542 -78 q 625 -96 606 -78 q 644 -189 644 -115 q 626 -291 644 -271 q 543 -311 608 -311 l 364 -311 l 364 -252 l 509 -252 q 553 -242 545 -252 q 561 -186 561 -233 q 554 -135 561 -144 q 507 -125 547 -125 l 454 -125 l 454 0 l 498 0 z "},"É":{"ha":888,"x_min":122,"x_max":831,"o":"m 122 0 l 122 1010 l 831 1010 l 831 903 l 233 903 l 233 572 l 814 572 l 814 469 l 233 469 l 233 106 l 831 106 l 831 0 l 122 0 m 475 1097 l 412 1097 l 554 1333 l 657 1333 l 475 1097 z "},"Ñ":{"ha":1076,"x_min":122,"x_max":953,"o":"m 122 0 l 122 1010 l 294 1010 l 842 109 l 842 1010 l 953 1010 l 953 0 l 781 0 l 233 903 l 233 0 l 122 0 m 749 1275 q 699 1183 731 1214 q 619 1153 666 1153 q 598 1155 610 1153 q 574 1160 587 1156 l 510 1179 q 490 1184 498 1183 q 473 1186 481 1186 q 438 1173 454 1186 q 411 1137 422 1160 l 357 1137 q 406 1228 372 1196 q 489 1259 439 1259 q 509 1258 500 1259 q 525 1254 517 1257 l 591 1233 q 609 1228 599 1230 q 628 1226 619 1226 q 667 1238 651 1226 q 693 1275 683 1250 l 749 1275 z "},"Ö":{"ha":1035,"x_min":90,"x_max":946,"o":"m 473 917 q 336 905 377 916 q 260 867 292 894 q 218 797 230 841 q 205 647 205 753 l 205 361 q 218 212 205 255 q 260 143 230 169 q 336 104 292 116 q 473 93 377 94 l 473 -12 l 454 -12 q 170 64 250 -12 q 90 334 90 140 l 90 676 q 170 946 90 869 q 454 1022 250 1022 l 473 1022 l 473 917 m 545 93 l 549 93 q 700 104 655 93 q 777 143 745 116 q 818 210 806 168 q 829 361 829 252 l 829 648 q 817 799 829 755 q 775 868 805 842 q 700 906 744 895 q 549 917 656 917 l 545 917 l 545 1022 l 582 1022 q 867 947 788 1022 q 946 676 946 871 l 946 334 q 866 64 946 140 q 582 -12 785 -12 l 545 -12 l 545 93 m 579 1148 l 579 1259 l 675 1259 l 675 1148 l 579 1148 m 361 1148 l 361 1259 l 457 1259 l 457 1148 l 361 1148 z "},"Ü":{"ha":1039,"x_min":113,"x_max":926,"o":"m 113 1010 l 225 1010 l 225 347 q 236 211 225 250 q 272 149 246 172 q 337 114 299 124 q 467 104 374 104 l 572 104 q 703 114 665 104 q 768 149 741 124 q 804 210 793 172 q 814 347 814 249 l 814 1010 l 926 1010 l 926 334 q 850 64 926 140 q 581 -12 774 -12 l 458 -12 q 189 64 265 -12 q 113 334 113 140 l 113 1010 m 581 1148 l 581 1259 l 676 1259 l 676 1148 l 581 1148 m 363 1148 l 363 1259 l 458 1259 l 458 1148 l 363 1148 z "},"á":{"ha":785,"x_min":75,"x_max":682,"o":"m 331 355 q 221 330 251 351 q 186 229 186 303 q 223 117 186 145 q 331 90 253 94 l 331 -9 q 132 39 184 -5 q 75 216 75 86 q 89 334 75 292 q 132 403 102 377 q 208 434 158 425 q 331 443 252 441 l 331 355 m 375 89 q 524 113 472 90 q 576 182 576 137 l 576 257 q 525 332 576 308 q 375 355 476 354 l 375 443 q 500 427 455 441 q 576 374 551 411 l 576 497 q 543 610 576 585 q 372 636 509 636 q 241 615 273 636 q 207 538 208 595 l 102 538 l 102 554 q 161 685 102 646 q 366 724 220 724 q 538 714 479 724 q 625 684 597 705 q 669 623 656 659 q 682 500 682 587 l 682 0 l 586 0 l 582 75 q 505 11 557 31 q 375 -9 456 -7 l 375 89 m 371 799 l 309 799 l 450 1035 l 553 1035 l 371 799 z "},"à":{"ha":785,"x_min":75,"x_max":682,"o":"m 331 355 q 221 330 251 351 q 186 229 186 303 q 223 117 186 145 q 331 90 253 94 l 331 -9 q 132 39 184 -5 q 75 216 75 86 q 89 334 75 292 q 132 403 102 377 q 208 434 158 425 q 331 443 252 441 l 331 355 m 375 89 q 524 113 472 90 q 576 182 576 137 l 576 257 q 525 332 576 308 q 375 355 476 354 l 375 443 q 500 427 455 441 q 576 374 551 411 l 576 497 q 543 610 576 585 q 372 636 509 636 q 241 615 273 636 q 207 538 208 595 l 102 538 l 102 554 q 161 685 102 646 q 366 724 220 724 q 538 714 479 724 q 625 684 597 705 q 669 623 656 659 q 682 500 682 587 l 682 0 l 586 0 l 582 75 q 505 11 557 31 q 375 -9 456 -7 l 375 89 m 416 799 l 233 1035 l 336 1035 l 478 799 l 416 799 z "},"â":{"ha":785,"x_min":75,"x_max":682,"o":"m 331 355 q 221 330 251 351 q 186 229 186 303 q 223 117 186 145 q 331 90 253 94 l 331 -9 q 132 39 184 -5 q 75 216 75 86 q 89 334 75 292 q 132 403 102 377 q 208 434 158 425 q 331 443 252 441 l 331 355 m 375 89 q 524 113 472 90 q 576 182 576 137 l 576 257 q 525 332 576 308 q 375 355 476 354 l 375 443 q 500 427 455 441 q 576 374 551 411 l 576 497 q 543 610 576 585 q 372 636 509 636 q 241 615 273 636 q 207 538 208 595 l 102 538 l 102 554 q 161 685 102 646 q 366 724 220 724 q 538 714 479 724 q 625 684 597 705 q 669 623 656 659 q 682 500 682 587 l 682 0 l 586 0 l 582 75 q 505 11 557 31 q 375 -9 456 -7 l 375 89 m 206 799 l 342 1035 l 445 1035 l 581 799 l 518 799 l 393 977 l 269 799 l 206 799 z "},"ä":{"ha":785,"x_min":75,"x_max":682,"o":"m 331 355 q 221 330 251 351 q 186 229 186 303 q 223 117 186 145 q 331 90 253 94 l 331 -9 q 132 39 184 -5 q 75 216 75 86 q 89 334 75 292 q 132 403 102 377 q 208 434 158 425 q 331 443 252 441 l 331 355 m 375 89 q 524 113 472 90 q 576 182 576 137 l 576 257 q 525 332 576 308 q 375 355 476 354 l 375 443 q 500 427 455 441 q 576 374 551 411 l 576 497 q 543 610 576 585 q 372 636 509 636 q 241 615 273 636 q 207 538 208 595 l 102 538 l 102 554 q 161 685 102 646 q 366 724 220 724 q 538 714 479 724 q 625 684 597 705 q 669 623 656 659 q 682 500 682 587 l 682 0 l 586 0 l 582 75 q 505 11 557 31 q 375 -9 456 -7 l 375 89 m 454 850 l 454 961 l 550 961 l 550 850 l 454 850 m 237 850 l 237 961 l 332 961 l 332 850 l 237 850 z "},"ã":{"ha":785,"x_min":75,"x_max":682,"o":"m 331 355 q 221 330 251 351 q 186 229 186 303 q 223 117 186 145 q 331 90 253 94 l 331 -9 q 132 39 184 -5 q 75 216 75 86 q 89 334 75 292 q 132 403 102 377 q 208 434 158 425 q 331 443 252 441 l 331 355 m 375 89 q 524 113 472 90 q 576 182 576 137 l 576 257 q 525 332 576 308 q 375 355 476 354 l 375 443 q 500 427 455 441 q 576 374 551 411 l 576 497 q 543 610 576 585 q 372 636 509 636 q 241 615 273 636 q 207 538 208 595 l 102 538 l 102 554 q 161 685 102 646 q 366 724 220 724 q 538 714 479 724 q 625 684 597 705 q 669 623 656 659 q 682 500 682 587 l 682 0 l 586 0 l 582 75 q 505 11 557 31 q 375 -9 456 -7 l 375 89 m 589 977 q 539 885 572 916 q 460 854 507 854 q 439 856 450 854 q 415 861 428 858 l 351 880 q 330 886 338 884 q 314 888 322 888 q 279 875 295 888 q 252 839 262 862 l 197 839 q 246 929 212 898 q 330 961 280 961 q 349 960 340 961 q 366 956 358 958 l 431 935 q 450 930 439 932 q 469 928 460 928 q 508 940 492 928 q 534 977 524 951 l 589 977 z "},"å":{"ha":785,"x_min":75,"x_max":682,"o":"m 301 926 q 331 854 301 884 q 403 825 360 825 q 474 855 445 825 q 504 926 504 884 q 475 999 504 969 q 403 1028 446 1028 q 331 999 360 1028 q 301 926 301 969 m 239 926 q 286 1042 239 995 q 403 1089 334 1089 q 519 1042 472 1089 q 567 926 567 995 q 519 811 567 858 q 403 764 472 764 q 286 811 334 764 q 239 926 239 858 m 582 75 q 504 11 557 31 q 357 -9 451 -9 q 132 38 189 -9 q 75 216 75 86 q 89 334 75 292 q 132 403 102 377 q 208 434 158 425 q 351 443 258 443 q 499 427 448 443 q 576 374 551 411 l 576 497 q 543 610 576 585 q 372 636 509 636 q 241 615 273 636 q 207 538 208 595 l 102 538 l 102 551 q 161 685 102 646 q 376 724 220 724 q 563 709 505 724 q 647 661 621 695 q 674 607 666 637 q 682 514 682 576 l 682 500 l 682 0 l 586 0 l 582 75 m 576 182 l 576 257 q 525 332 576 308 q 359 355 473 355 q 221 329 256 355 q 186 229 186 303 q 223 117 186 145 q 371 89 260 89 q 524 113 471 89 q 576 182 576 137 z "},"ç":{"ha":785,"x_min":81,"x_max":704,"o":"m 368 -9 q 144 53 208 -9 q 81 272 81 115 l 81 441 q 144 661 81 599 q 367 724 208 724 l 416 724 q 634 666 568 724 q 704 475 701 608 l 595 475 q 555 594 591 562 q 416 627 519 627 l 367 627 q 224 590 258 627 q 191 418 191 553 l 191 296 q 224 123 191 159 q 367 86 258 86 l 416 86 q 558 122 521 86 q 595 252 595 157 l 595 264 l 704 264 l 704 250 q 638 51 704 111 q 418 -9 572 -9 l 368 -9 m 400 0 l 400 -78 l 444 -78 q 527 -96 508 -78 q 546 -189 546 -115 q 528 -291 546 -271 q 445 -311 510 -311 l 266 -311 l 266 -252 l 410 -252 q 454 -242 446 -252 q 463 -186 463 -233 q 455 -135 463 -144 q 409 -125 448 -125 l 356 -125 l 356 0 l 400 0 z "},"é":{"ha":785,"x_min":81,"x_max":704,"o":"m 426 427 l 595 427 l 595 454 q 559 591 595 555 q 426 627 524 625 l 426 724 q 640 661 578 722 q 704 441 704 599 l 704 334 l 426 333 l 426 427 m 375 627 l 367 627 q 226 591 261 627 q 191 454 191 555 l 191 427 l 375 427 l 375 333 l 191 333 q 190 309 190 322 q 189 272 189 296 q 224 124 189 161 q 367 86 260 86 l 375 86 l 375 -9 l 368 -9 q 144 53 208 -9 q 81 272 81 115 l 81 441 q 144 661 81 599 q 367 724 208 724 l 375 724 l 375 627 m 426 86 q 549 114 514 87 q 593 210 587 141 l 703 210 q 628 42 694 94 q 426 -9 564 -8 l 426 86 m 375 799 l 313 799 l 454 1035 l 557 1035 l 375 799 z "},"è":{"ha":785,"x_min":81,"x_max":704,"o":"m 426 427 l 595 427 l 595 454 q 559 591 595 555 q 426 627 524 625 l 426 724 q 640 661 578 722 q 704 441 704 599 l 704 334 l 426 333 l 426 427 m 375 627 l 367 627 q 226 591 261 627 q 191 454 191 555 l 191 427 l 375 427 l 375 333 l 191 333 q 190 309 190 322 q 189 272 189 296 q 224 124 189 161 q 367 86 260 86 l 375 86 l 375 -9 l 368 -9 q 144 53 208 -9 q 81 272 81 115 l 81 441 q 144 661 81 599 q 367 724 208 724 l 375 724 l 375 627 m 426 86 q 549 114 514 87 q 593 210 587 141 l 703 210 q 628 42 694 94 q 426 -9 564 -8 l 426 86 m 420 799 l 237 1035 l 340 1035 l 482 799 l 420 799 z "},"ê":{"ha":785,"x_min":81,"x_max":704,"o":"m 426 427 l 595 427 l 595 454 q 559 591 595 555 q 426 627 524 625 l 426 724 q 640 661 578 722 q 704 441 704 599 l 704 334 l 426 333 l 426 427 m 375 627 l 367 627 q 226 591 261 627 q 191 454 191 555 l 191 427 l 375 427 l 375 333 l 191 333 q 190 309 190 322 q 189 272 189 296 q 224 124 189 161 q 367 86 260 86 l 375 86 l 375 -9 l 368 -9 q 144 53 208 -9 q 81 272 81 115 l 81 441 q 144 661 81 599 q 367 724 208 724 l 375 724 l 375 627 m 426 86 q 549 114 514 87 q 593 210 587 141 l 703 210 q 628 42 694 94 q 426 -9 564 -8 l 426 86 m 210 799 l 346 1035 l 449 1035 l 585 799 l 522 799 l 397 977 l 273 799 l 210 799 z "},"ë":{"ha":785,"x_min":81,"x_max":704,"o":"m 426 427 l 595 427 l 595 454 q 559 591 595 555 q 426 627 524 625 l 426 724 q 640 661 578 722 q 704 441 704 599 l 704 334 l 426 333 l 426 427 m 375 627 l 367 627 q 226 591 261 627 q 191 454 191 555 l 191 427 l 375 427 l 375 333 l 191 333 q 190 309 190 322 q 189 272 189 296 q 224 124 189 161 q 367 86 260 86 l 375 86 l 375 -9 l 368 -9 q 144 53 208 -9 q 81 272 81 115 l 81 441 q 144 661 81 599 q 367 724 208 724 l 375 724 l 375 627 m 426 86 q 549 114 514 87 q 593 210 587 141 l 703 210 q 628 42 694 94 q 426 -9 564 -8 l 426 86 m 458 850 l 458 961 l 554 961 l 554 850 l 458 850 m 241 850 l 241 961 l 336 961 l 336 850 l 241 850 z "},"í":{"ha":325,"x_min":78,"x_max":323,"o":"m 110 0 l 110 714 l 215 714 l 215 0 l 110 0 m 140 799 l 78 799 l 220 1035 l 323 1035 l 140 799 z "},"ì":{"ha":325,"x_min":3,"x_max":248,"o":"m 110 0 l 110 714 l 215 714 l 215 0 l 110 0 m 185 799 l 3 1035 l 106 1035 l 248 799 l 185 799 z "},"î":{"ha":325,"x_min":-24,"x_max":350,"o":"m 110 0 l 110 714 l 215 714 l 215 0 l 110 0 m -24 799 l 111 1035 l 214 1035 l 350 799 l 288 799 l 163 977 l 38 799 l -24 799 z "},"ï":{"ha":325,"x_min":6,"x_max":319,"o":"m 110 0 l 110 714 l 215 714 l 215 0 l 110 0 m 224 850 l 224 961 l 319 961 l 319 850 l 224 850 m 6 850 l 6 961 l 102 961 l 102 850 l 6 850 z "},"ñ":{"ha":800,"x_min":110,"x_max":697,"o":"m 110 0 l 110 714 l 211 714 l 211 616 q 294 697 237 671 q 444 724 351 724 q 641 667 585 724 q 697 468 697 610 l 697 0 l 591 0 l 591 446 q 558 593 591 557 q 431 628 526 628 q 267 577 319 628 q 215 415 215 526 l 215 0 l 110 0 m 617 977 q 567 885 600 916 q 488 854 534 854 q 467 856 478 854 q 443 861 456 858 l 378 880 q 358 886 366 884 q 342 888 350 888 q 307 875 323 888 q 279 839 290 862 l 225 839 q 274 929 240 898 q 357 961 308 961 q 377 960 368 961 q 393 956 386 958 l 459 935 q 477 930 467 932 q 496 928 488 928 q 535 940 519 928 q 562 977 551 951 l 617 977 z "},"ó":{"ha":785,"x_min":81,"x_max":704,"o":"m 359 627 q 224 590 256 625 q 191 418 191 553 l 191 296 q 224 123 191 159 q 359 86 257 87 l 359 -9 q 144 53 206 -7 q 81 272 81 115 l 81 441 q 144 661 81 599 q 359 724 206 722 l 359 627 m 416 86 q 560 123 526 86 q 595 296 595 161 l 595 418 q 561 590 595 553 q 416 627 526 627 l 416 724 q 640 661 576 724 q 704 441 704 599 l 704 272 q 641 53 704 115 q 418 -9 577 -9 l 416 -9 l 416 86 m 371 799 l 309 799 l 450 1035 l 553 1035 l 371 799 z "},"ò":{"ha":785,"x_min":81,"x_max":704,"o":"m 359 627 q 224 590 256 625 q 191 418 191 553 l 191 296 q 224 123 191 159 q 359 86 257 87 l 359 -9 q 144 53 206 -7 q 81 272 81 115 l 81 441 q 144 661 81 599 q 359 724 206 722 l 359 627 m 416 86 q 560 123 526 86 q 595 296 595 161 l 595 418 q 561 590 595 553 q 416 627 526 627 l 416 724 q 640 661 576 724 q 704 441 704 599 l 704 272 q 641 53 704 115 q 418 -9 577 -9 l 416 -9 l 416 86 m 416 799 l 233 1035 l 336 1035 l 478 799 l 416 799 z "},"ô":{"ha":785,"x_min":81,"x_max":704,"o":"m 359 627 q 224 590 256 625 q 191 418 191 553 l 191 296 q 224 123 191 159 q 359 86 257 87 l 359 -9 q 144 53 206 -7 q 81 272 81 115 l 81 441 q 144 661 81 599 q 359 724 206 722 l 359 627 m 416 86 q 560 123 526 86 q 595 296 595 161 l 595 418 q 561 590 595 553 q 416 627 526 627 l 416 724 q 640 661 576 724 q 704 441 704 599 l 704 272 q 641 53 704 115 q 418 -9 577 -9 l 416 -9 l 416 86 m 206 799 l 342 1035 l 445 1035 l 581 799 l 518 799 l 393 977 l 269 799 l 206 799 z "},"ö":{"ha":785,"x_min":81,"x_max":704,"o":"m 359 627 q 224 590 256 625 q 191 418 191 553 l 191 296 q 224 123 191 159 q 359 86 257 87 l 359 -9 q 144 53 206 -7 q 81 272 81 115 l 81 441 q 144 661 81 599 q 359 724 206 722 l 359 627 m 416 86 q 560 123 526 86 q 595 296 595 161 l 595 418 q 561 590 595 553 q 416 627 526 627 l 416 724 q 640 661 576 724 q 704 441 704 599 l 704 272 q 641 53 704 115 q 418 -9 577 -9 l 416 -9 l 416 86 m 454 850 l 454 961 l 550 961 l 550 850 l 454 850 m 237 850 l 237 961 l 332 961 l 332 850 l 237 850 z "},"õ":{"ha":785,"x_min":81,"x_max":704,"o":"m 359 627 q 224 590 256 625 q 191 418 191 553 l 191 296 q 224 123 191 159 q 359 86 257 87 l 359 -9 q 144 53 206 -7 q 81 272 81 115 l 81 441 q 144 661 81 599 q 359 724 206 722 l 359 627 m 416 86 q 560 123 526 86 q 595 296 595 161 l 595 418 q 561 590 595 553 q 416 627 526 627 l 416 724 q 640 661 576 724 q 704 441 704 599 l 704 272 q 641 53 704 115 q 418 -9 577 -9 l 416 -9 l 416 86 m 589 977 q 539 885 572 916 q 460 854 507 854 q 439 856 450 854 q 415 861 428 858 l 351 880 q 330 886 338 884 q 314 888 322 888 q 279 875 295 888 q 252 839 262 862 l 197 839 q 246 929 212 898 q 330 961 280 961 q 349 960 340 961 q 366 956 358 958 l 431 935 q 450 930 439 932 q 469 928 460 928 q 508 940 492 928 q 534 977 524 951 l 589 977 z "},"ú":{"ha":800,"x_min":103,"x_max":692,"o":"m 692 714 l 692 0 l 590 0 l 590 97 q 507 17 565 43 q 355 -9 450 -9 q 159 47 216 -9 q 103 245 103 104 l 103 714 l 208 714 l 208 268 q 241 121 208 157 q 371 86 275 86 q 533 137 482 86 q 585 298 585 188 l 585 714 l 692 714 m 378 799 l 315 799 l 457 1035 l 560 1035 l 378 799 z "},"ù":{"ha":800,"x_min":103,"x_max":692,"o":"m 692 714 l 692 0 l 590 0 l 590 97 q 507 17 565 43 q 355 -9 450 -9 q 159 47 216 -9 q 103 245 103 104 l 103 714 l 208 714 l 208 268 q 241 121 208 157 q 371 86 275 86 q 533 137 482 86 q 585 298 585 188 l 585 714 l 692 714 m 422 799 l 240 1035 l 343 1035 l 485 799 l 422 799 z "},"û":{"ha":800,"x_min":103,"x_max":692,"o":"m 692 714 l 692 0 l 590 0 l 590 97 q 507 17 565 43 q 355 -9 450 -9 q 159 47 216 -9 q 103 245 103 104 l 103 714 l 208 714 l 208 268 q 241 121 208 157 q 371 86 275 86 q 533 137 482 86 q 585 298 585 188 l 585 714 l 692 714 m 213 799 l 349 1035 l 452 1035 l 587 799 l 525 799 l 400 977 l 275 799 l 213 799 z "},"ü":{"ha":800,"x_min":103,"x_max":692,"o":"m 692 714 l 692 0 l 590 0 l 590 97 q 507 17 565 43 q 355 -9 450 -9 q 159 47 216 -9 q 103 245 103 104 l 103 714 l 208 714 l 208 268 q 241 121 208 157 q 371 86 275 86 q 533 137 482 86 q 585 298 585 188 l 585 714 l 692 714 m 461 850 l 461 961 l 557 961 l 557 850 l 461 850 m 243 850 l 243 961 l 339 961 l 339 850 l 243 850 z "},"†":{"ha":694,"x_min":94,"x_max":600,"o":"m 400 1010 l 400 739 l 600 739 l 600 643 l 400 643 l 400 0 l 294 0 l 294 643 l 94 643 l 94 739 l 294 739 l 294 1010 l 400 1010 z "},"°":{"ha":457,"x_min":40,"x_max":416,"o":"m 370 796 q 329 896 370 854 q 229 937 288 937 q 129 896 171 937 q 87 796 87 854 q 129 696 87 737 q 229 656 170 656 q 329 696 288 656 q 370 796 370 737 m 229 985 q 362 929 307 985 q 416 796 416 874 q 361 663 416 718 q 228 607 306 607 q 94 662 149 607 q 40 796 40 717 q 95 930 40 875 q 229 985 151 985 z "},"¢":{"ha":939,"x_min":121,"x_max":745,"o":"m 301 100 l 475 627 l 407 627 q 263 590 298 627 q 229 418 229 553 l 229 296 q 245 154 229 191 q 301 100 261 116 m 363 -9 l 307 -178 l 210 -178 l 269 4 q 155 91 189 31 q 121 272 121 151 l 121 441 q 184 661 121 599 q 407 724 248 724 l 507 724 l 551 859 l 648 859 l 599 708 q 708 627 672 684 q 745 475 743 570 l 635 475 q 616 569 633 534 q 568 612 599 604 l 395 86 l 457 86 q 598 122 561 86 q 635 252 635 157 l 635 264 l 745 264 l 745 250 q 678 51 745 111 q 457 -9 611 -9 l 363 -9 z "},"£":{"ha":939,"x_min":78,"x_max":867,"o":"m 78 0 l 78 106 l 92 106 q 181 145 155 106 q 208 278 208 184 l 208 403 l 78 403 l 78 500 l 208 500 l 208 789 q 282 967 208 912 q 522 1022 355 1022 q 775 975 699 1022 q 852 821 852 928 l 852 715 l 737 715 l 737 778 q 695 890 737 861 q 530 918 652 918 q 424 910 467 918 q 358 885 381 901 q 329 843 338 869 q 321 753 321 818 l 321 739 l 321 500 l 618 500 l 618 403 l 321 403 l 321 279 q 304 162 321 207 q 257 106 288 118 l 867 106 l 867 0 l 78 0 z "},"§":{"ha":758,"x_min":43,"x_max":715,"o":"m 498 583 l 297 650 q 189 609 227 637 q 151 545 151 582 q 178 486 151 511 q 260 443 205 460 l 461 378 q 569 419 531 391 q 607 484 607 446 q 581 541 607 517 q 498 583 554 566 m 207 195 l 207 161 q 238 100 207 116 q 375 83 270 83 q 514 102 486 83 q 543 175 543 121 q 529 233 543 213 q 481 264 515 253 l 228 346 q 84 419 126 378 q 43 522 43 459 q 83 627 43 585 q 196 682 124 669 q 120 738 143 701 q 97 842 97 774 q 153 983 97 944 q 367 1022 209 1022 q 561 985 503 1022 q 618 864 618 949 l 618 832 l 511 832 l 511 848 q 481 909 511 892 q 358 926 450 926 q 232 911 258 926 q 207 850 207 896 q 220 795 207 813 q 272 765 234 778 l 575 667 q 680 602 645 644 q 715 501 715 561 q 673 395 715 438 q 559 345 631 353 q 632 292 610 329 q 653 176 653 254 q 597 28 653 69 q 380 -12 541 -12 q 160 23 220 -12 q 100 147 100 59 l 100 195 l 207 195 z "},"•":{"ha":819,"x_min":208,"x_max":610,"o":"m 208 517 q 267 659 208 600 q 410 717 326 717 q 551 658 492 717 q 610 517 610 600 q 550 375 610 434 q 408 315 491 315 q 267 374 325 315 q 208 517 208 433 z "},"¶":{"ha":694,"x_min":57,"x_max":637,"o":"m 637 956 l 551 956 l 551 0 l 496 0 l 496 956 l 370 956 l 370 0 l 313 0 l 313 530 q 126 600 195 536 q 57 766 57 664 q 130 938 57 873 q 323 1003 203 1003 l 637 1003 l 637 956 z "},"ß":{"ha":733,"x_min":86,"x_max":673,"o":"m 86 0 l 86 725 q 145 945 86 884 q 355 1006 204 1006 q 568 946 505 1006 q 631 749 631 887 q 604 625 631 669 q 514 559 576 582 q 637 481 602 541 q 673 289 673 422 q 617 57 673 125 q 428 -11 561 -11 q 379 -9 405 -11 q 322 -3 353 -7 l 323 94 q 364 87 343 90 q 408 85 385 85 q 531 124 500 85 q 562 289 562 164 q 529 467 562 430 q 400 504 496 504 l 322 504 l 322 591 l 382 591 q 492 627 461 591 q 524 757 524 663 q 488 878 524 845 q 354 911 452 911 q 225 876 258 911 q 192 714 192 840 l 192 0 l 86 0 z "},"®":{"ha":1157,"x_min":82,"x_max":1075,"o":"m 576 726 l 469 726 l 469 521 l 576 521 q 704 544 667 521 q 741 621 741 566 q 702 702 741 677 q 576 726 663 726 m 593 785 q 771 746 713 785 q 829 627 829 707 q 793 526 829 566 q 694 476 756 485 l 822 212 l 724 212 l 603 464 l 469 464 l 469 212 l 383 212 l 383 785 l 593 785 m 1021 489 q 988 661 1021 580 q 895 803 956 741 q 750 900 831 866 q 578 933 669 933 q 411 901 490 933 q 269 806 332 868 q 171 659 205 740 q 136 490 136 578 q 170 323 136 403 q 267 179 203 243 q 410 82 330 116 q 578 49 490 49 q 748 83 666 49 q 895 180 829 117 q 988 319 956 241 q 1021 489 1021 397 m 578 987 q 771 950 681 987 q 932 842 862 913 q 1038 682 1001 772 q 1075 490 1075 591 q 1039 300 1075 389 q 932 142 1002 211 q 768 32 859 70 q 578 -7 676 -7 q 388 31 478 -7 q 228 140 298 68 q 119 301 157 211 q 82 490 82 391 q 120 680 82 588 q 231 844 159 772 q 388 951 299 914 q 578 987 477 987 z "},"©":{"ha":1157,"x_min":82,"x_max":1075,"o":"m 728 621 q 677 705 715 675 q 581 734 638 734 q 452 670 498 734 q 406 489 406 606 q 452 313 406 376 q 581 249 499 249 q 683 283 641 249 q 736 376 725 317 l 814 376 q 740 237 806 292 q 576 183 674 183 q 387 266 456 183 q 318 493 318 349 q 391 714 318 631 q 583 798 464 798 q 737 749 675 798 q 807 621 799 700 l 728 621 m 1021 490 q 988 661 1021 580 q 893 803 955 741 q 749 900 829 867 q 578 933 668 933 q 409 901 488 933 q 268 806 330 868 q 170 660 204 741 q 136 490 136 578 q 170 323 136 403 q 267 179 203 243 q 410 82 330 116 q 578 49 490 49 q 748 83 666 49 q 895 180 829 117 q 988 320 956 241 q 1021 490 1021 399 m 578 987 q 770 950 679 987 q 932 842 861 912 q 1038 682 1001 772 q 1075 490 1075 591 q 1039 300 1075 389 q 932 142 1002 211 q 768 32 859 70 q 578 -7 676 -7 q 389 31 479 -7 q 228 140 299 68 q 119 301 157 211 q 82 490 82 391 q 120 680 82 589 q 231 844 159 771 q 388 951 299 914 q 578 987 477 987 z "},"™":{"ha":1157,"x_min":179,"x_max":933,"o":"m 636 986 l 749 700 l 854 986 l 933 986 l 933 627 l 885 627 l 885 943 l 765 627 l 732 627 l 606 943 l 606 627 l 557 627 l 557 986 l 636 986 m 471 986 l 471 947 l 354 947 l 354 627 l 298 627 l 298 947 l 179 947 l 179 986 l 471 986 z "},"´":{"ha":694,"x_min":262,"x_max":507,"o":"m 325 799 l 262 799 l 404 1035 l 507 1035 l 325 799 z "},"¨":{"ha":694,"x_min":191,"x_max":504,"o":"m 408 850 l 408 961 l 504 961 l 504 850 l 408 850 m 191 850 l 191 961 l 286 961 l 286 850 l 191 850 z "},"≠":{"ha":1157,"x_min":172,"x_max":985,"o":"m 873 753 l 734 574 l 985 574 l 985 509 l 692 509 l 546 321 l 985 321 l 985 254 l 504 254 l 332 35 l 282 75 l 421 254 l 172 254 l 172 321 l 463 321 l 608 509 l 172 509 l 172 574 l 652 574 l 823 793 l 873 753 z "},"Æ":{"ha":1410,"x_min":-113,"x_max":1353,"o":"m 204 358 l 647 358 l 647 903 l 505 903 l 204 358 m 647 0 l 647 252 l 144 252 l 7 0 l -113 0 l 446 1010 l 1353 1010 l 1353 903 l 751 903 l 751 572 l 1336 572 l 1336 469 l 751 469 l 751 106 l 1353 106 l 1353 0 l 647 0 z "},"Ø":{"ha":1035,"x_min":89,"x_max":946,"o":"m 216 176 l 746 903 q 684 913 724 910 q 574 917 644 917 l 461 917 q 323 907 364 917 q 254 872 283 897 q 216 811 227 850 q 205 672 205 772 l 205 338 q 208 250 205 289 q 216 176 211 210 m 821 833 l 289 106 q 358 96 319 99 q 461 93 397 93 l 574 93 q 711 103 671 93 q 781 138 751 113 q 819 199 808 160 q 829 338 829 238 l 829 672 q 827 763 829 723 q 821 833 825 803 m 90 676 q 170 946 90 869 q 454 1022 250 1022 l 582 1022 q 719 1014 669 1022 q 807 987 768 1006 l 865 1068 l 946 1007 l 886 925 q 932 828 918 884 q 946 676 946 771 l 946 334 q 866 64 946 140 q 582 -12 785 -12 l 454 -12 q 312 -4 361 -12 q 231 24 262 4 l 171 -58 l 89 4 l 151 89 q 104 177 119 123 q 90 334 90 232 l 90 676 z "},"∞":{"ha":1157,"x_min":158,"x_max":1000,"o":"m 608 379 q 691 278 644 311 q 799 244 739 244 q 917 295 871 244 q 962 425 962 346 q 920 552 962 502 q 814 603 878 603 q 709 553 755 603 q 608 379 662 503 m 550 453 q 468 553 515 520 q 359 586 420 586 q 242 535 288 586 q 196 407 196 485 q 239 280 196 331 q 345 229 281 229 q 451 280 404 229 q 550 453 498 331 m 568 489 q 669 629 617 587 q 793 671 722 671 q 939 598 877 671 q 1000 418 1000 525 q 945 232 1000 303 q 802 161 890 161 q 688 202 737 161 q 589 340 638 243 q 488 204 541 246 q 371 161 436 161 q 220 234 281 161 q 158 415 158 306 q 213 600 158 530 q 357 671 269 671 q 473 627 422 671 q 568 489 524 584 z "},"±":{"ha":1157,"x_min":172,"x_max":985,"o":"m 985 102 l 985 35 l 172 35 l 172 102 l 985 102 m 612 793 l 612 557 l 985 557 l 985 490 l 612 490 l 612 254 l 546 254 l 546 490 l 172 490 l 172 557 l 546 557 l 546 793 l 612 793 z "},"≤":{"ha":1157,"x_min":179,"x_max":978,"o":"m 978 94 l 978 28 l 179 28 l 179 94 l 978 94 m 978 729 l 293 500 l 978 272 l 978 200 l 179 472 l 179 529 l 978 802 l 978 729 z "},"≥":{"ha":1157,"x_min":179,"x_max":978,"o":"m 978 94 l 978 28 l 179 28 l 179 94 l 978 94 m 978 529 l 978 472 l 179 200 l 179 272 l 864 500 l 179 729 l 179 802 l 978 529 z "},"¥":{"ha":827,"x_min":-60,"x_max":885,"o":"m 468 0 l 358 0 l 358 443 l 0 443 l 0 526 l 304 526 l 215 648 l 0 648 l 0 732 l 147 732 l -60 1010 l 72 1010 l 412 539 l 753 1010 l 885 1010 l 679 732 l 827 732 l 827 648 l 610 648 l 521 526 l 827 526 l 827 443 l 468 443 l 468 0 z "},"µ":{"ha":753,"x_min":-75,"x_max":703,"o":"m 233 722 l 149 321 q 140 271 143 294 q 138 227 138 248 q 177 104 138 147 q 290 61 216 61 q 436 134 375 61 q 526 345 497 207 l 608 722 l 703 722 l 591 200 q 580 142 583 163 q 576 110 576 122 q 588 76 576 87 q 623 65 600 65 q 634 65 627 65 q 647 66 640 66 l 633 -8 q 606 -14 621 -12 q 575 -16 591 -16 q 505 9 528 -16 q 482 83 482 33 l 482 93 q 401 12 454 41 q 279 -17 348 -17 q 170 10 217 -17 q 97 89 123 37 l 20 -289 l -75 -289 l 139 722 l 233 722 z "},"∂":{"ha":701,"x_min":85,"x_max":623,"o":"m 510 401 q 522 510 518 458 q 526 611 526 562 q 499 775 526 718 q 421 832 472 832 q 348 786 387 832 q 278 739 309 739 q 242 753 257 739 q 228 785 228 766 q 271 857 228 827 q 376 888 314 888 q 555 786 488 888 q 623 510 623 684 q 530 133 623 283 q 304 -18 438 -18 q 146 54 208 -18 q 85 243 85 127 q 159 449 85 364 q 336 534 233 534 q 445 502 403 534 q 510 401 488 469 m 482 314 q 452 445 482 401 q 361 489 421 489 q 234 405 284 489 q 184 186 184 320 q 215 58 184 100 q 306 16 245 16 q 432 101 382 16 q 482 314 482 186 z "},"∑":{"ha":893,"x_min":9,"x_max":868,"o":"m 33 999 l 863 999 l 863 901 l 175 901 l 653 382 l 151 -170 l 868 -170 l 868 -267 l 9 -267 l 9 -176 l 514 380 l 33 904 l 33 999 z "},"∏":{"ha":1023,"x_min":109,"x_max":914,"o":"m 109 999 l 914 999 l 914 -267 l 800 -267 l 800 899 l 222 899 l 222 -267 l 109 -267 l 109 999 z "},"π":{"ha":794,"x_min":-3,"x_max":778,"o":"m 760 640 l 636 640 l 558 273 q 543 194 548 227 q 538 146 538 161 q 555 90 538 106 q 612 74 572 74 q 647 76 632 74 q 675 80 662 77 l 657 0 q 621 -8 638 -5 q 589 -11 604 -11 q 482 25 520 -11 q 444 126 444 61 q 452 206 444 157 q 482 364 459 255 l 541 640 l 293 640 l 158 0 l 64 0 l 199 640 l 172 640 q 114 619 135 640 q 86 551 94 597 l -3 551 q 57 685 14 648 q 203 722 100 722 l 778 722 l 760 640 z "},"∫":{"ha":668,"x_min":31,"x_max":636,"o":"m 199 -184 q 278 299 269 -184 q 281 432 279 385 q 347 906 288 762 q 529 1050 406 1050 q 606 1025 576 1050 q 636 960 636 1000 q 617 908 636 927 q 564 889 597 889 q 494 936 511 889 q 471 983 477 983 q 392 561 399 983 q 387 365 389 435 q 319 -112 377 28 q 138 -252 260 -252 q 61 -227 91 -252 q 31 -165 31 -203 q 52 -111 31 -131 q 107 -90 73 -90 q 149 -101 132 -90 q 176 -136 166 -113 q 181 -159 179 -142 q 199 -184 184 -184 z "},"ª":{"ha":589,"x_min":57,"x_max":511,"o":"m 432 637 l 432 690 q 393 742 432 726 q 269 758 354 758 q 166 740 192 758 q 140 671 140 722 q 168 592 140 612 q 278 572 195 572 q 393 589 354 572 q 432 637 432 606 m 436 562 q 379 517 418 531 q 268 503 339 503 q 99 536 142 503 q 57 661 57 570 q 66 745 57 715 q 98 791 76 774 q 156 813 118 806 q 264 819 193 819 q 375 808 338 819 q 432 771 413 797 l 432 859 q 406 938 432 920 q 279 956 380 956 q 181 941 206 956 q 155 886 157 926 l 77 886 l 77 897 q 121 989 77 962 q 273 1017 166 1017 q 404 1010 360 1017 q 469 987 448 1003 q 502 947 492 971 q 511 860 511 922 l 511 510 l 440 510 l 436 562 z "},"º":{"ha":589,"x_min":61,"x_max":528,"o":"m 446 717 l 446 803 q 420 923 446 897 q 313 949 395 949 l 275 949 q 169 923 194 949 q 143 803 143 898 l 143 717 q 169 595 143 621 q 275 570 194 570 l 313 570 q 420 596 394 570 q 446 717 446 622 m 277 503 q 109 546 157 503 q 61 700 61 590 l 61 819 q 109 973 61 930 q 275 1017 156 1017 l 313 1017 q 480 973 433 1017 q 528 819 528 930 l 528 700 q 480 546 528 590 q 314 503 433 503 l 277 503 z "},"Ω":{"ha":1071,"x_min":79,"x_max":991,"o":"m 991 94 l 991 0 l 597 0 l 597 86 q 810 285 738 170 q 882 539 882 400 q 786 824 882 715 q 536 933 690 933 q 286 825 382 933 q 189 541 189 716 q 261 284 189 400 q 473 86 334 169 l 473 0 l 79 0 l 79 94 l 313 94 q 139 292 195 184 q 82 532 82 399 q 210 887 82 749 q 536 1026 338 1026 q 862 888 734 1026 q 990 533 990 750 q 933 293 990 400 q 758 94 877 186 l 991 94 z "},"æ":{"ha":1274,"x_min":75,"x_max":1193,"o":"m 679 427 l 1084 427 l 1084 454 q 1049 591 1084 555 q 907 627 1013 627 l 857 627 q 715 591 751 627 q 679 454 679 555 l 679 427 m 102 538 l 102 551 q 161 685 102 647 q 376 724 220 724 q 558 706 504 724 q 636 646 613 688 q 716 706 667 688 q 856 724 764 724 l 907 724 q 1129 661 1066 724 q 1193 441 1193 599 l 1193 334 l 679 333 q 678 309 678 321 q 677 273 677 296 q 713 124 677 162 q 857 86 749 86 l 907 86 q 1039 113 1002 86 q 1082 210 1076 140 l 1192 210 q 1117 42 1183 94 q 907 -9 1050 -9 l 857 -9 q 697 15 748 -9 q 616 98 646 39 q 512 16 576 41 q 335 -9 447 -9 q 131 40 186 -9 q 75 216 75 89 q 89 334 75 292 q 132 403 102 377 q 208 434 158 425 q 351 443 258 443 q 500 427 448 443 q 578 374 551 411 l 578 497 q 543 610 578 584 q 372 636 509 636 q 240 615 273 636 q 207 538 208 595 l 102 538 m 576 183 l 576 257 q 525 332 576 308 q 359 355 473 355 q 221 329 256 355 q 186 229 186 303 q 223 115 186 144 q 371 86 261 86 q 523 111 470 86 q 576 183 576 136 z "},"ø":{"ha":785,"x_min":52,"x_max":732,"o":"m 528 618 q 481 625 507 623 q 416 627 455 627 l 367 627 q 224 590 258 627 q 191 418 191 553 l 191 296 q 191 212 191 238 q 195 164 192 186 l 528 618 m 368 -9 q 272 -4 311 -9 q 204 14 234 1 l 132 -82 l 52 -21 l 123 78 q 91 153 101 109 q 81 272 81 198 l 81 441 q 144 661 81 599 q 367 724 208 724 l 416 724 q 517 718 477 724 q 582 700 558 712 l 653 796 l 732 736 l 661 639 q 694 559 684 604 q 704 441 704 513 l 704 272 q 641 53 704 115 q 418 -9 577 -9 l 368 -9 m 595 296 l 595 418 q 593 496 595 463 q 589 554 592 530 l 253 94 q 310 88 282 90 q 367 86 338 86 l 416 86 q 560 123 526 86 q 595 296 595 161 z "},"¿":{"ha":721,"x_min":39,"x_max":667,"o":"m 461 1010 l 461 880 l 349 880 l 349 1010 l 461 1010 m 461 733 l 461 653 q 433 557 461 593 q 300 473 405 520 l 296 472 q 174 397 195 429 q 154 341 161 378 q 147 252 147 304 q 180 125 147 159 q 310 92 213 92 q 459 97 415 92 q 519 115 503 102 q 548 162 539 130 q 557 254 557 194 q 556 290 557 277 q 556 313 556 302 l 667 313 l 667 212 q 595 39 667 90 q 345 -12 524 -12 q 102 45 165 -12 q 39 254 39 102 q 66 439 39 380 q 160 530 93 499 q 216 555 180 540 q 349 682 349 613 l 349 733 l 461 733 z "},"¡":{"ha":350,"x_min":122,"x_max":228,"o":"m 129 737 l 222 737 l 228 0 l 122 0 l 129 737 m 122 1010 l 228 1010 l 228 879 l 122 879 l 122 1010 z "},"¬":{"ha":1157,"x_min":172,"x_max":985,"o":"m 985 582 l 985 241 l 920 241 l 920 514 l 172 514 l 172 582 l 985 582 z "},"√":{"ha":865,"x_min":37,"x_max":865,"o":"m 865 1109 l 865 1061 l 781 1061 l 378 -28 l 350 -28 l 127 582 l 50 555 l 37 595 l 204 653 l 389 147 l 745 1109 l 865 1109 z "},"ƒ":{"ha":939,"x_min":-32,"x_max":791,"o":"m -32 -156 q 33 -167 5 -163 q 77 -171 60 -171 q 202 -118 159 -171 q 272 78 245 -66 l 358 536 l 158 536 l 158 627 l 372 627 l 396 754 q 489 954 420 885 q 665 1022 557 1022 q 727 1018 695 1022 q 791 1007 758 1015 l 791 905 q 727 917 753 913 q 682 921 701 921 q 572 876 614 921 q 513 743 529 831 l 490 627 l 703 627 l 703 536 l 478 536 l 386 52 q 284 -200 352 -127 q 92 -273 217 -273 q 35 -270 65 -273 q -32 -258 5 -266 l -32 -156 z "},"≈":{"ha":1157,"x_min":121,"x_max":1038,"o":"m 1038 318 q 901 244 966 268 q 775 220 837 220 q 578 267 707 220 q 383 314 449 314 q 267 289 328 314 q 121 205 207 264 l 121 281 q 258 355 193 331 q 383 379 322 379 q 586 333 457 379 q 775 286 714 286 q 894 310 833 286 q 1038 393 954 334 l 1038 318 m 1038 547 q 903 473 967 497 q 775 449 838 449 q 577 496 705 449 q 383 543 449 543 q 267 518 328 543 q 121 435 207 494 l 121 511 q 257 585 192 561 q 383 610 322 610 q 586 563 457 610 q 775 515 714 515 q 891 539 832 515 q 1038 623 950 562 l 1038 547 z "},"∆":{"ha":913,"x_min":-7,"x_max":920,"o":"m 772 94 l 456 899 l 140 94 l 772 94 m 519 999 l 920 0 l -7 0 l 393 999 l 519 999 z "},"«":{"ha":665,"x_min":66,"x_max":587,"o":"m 350 144 l 233 144 l 66 357 l 233 570 l 350 570 l 182 357 l 350 144 m 587 144 l 471 144 l 304 357 l 471 570 l 587 570 l 419 357 l 587 144 z "},"»":{"ha":665,"x_min":78,"x_max":599,"o":"m 317 144 l 484 357 l 317 570 l 432 570 l 599 357 l 432 144 l 317 144 m 78 144 l 245 357 l 78 570 l 195 570 l 361 357 l 195 144 l 78 144 z "},"…":{"ha":1389,"x_min":87,"x_max":1132,"o":"m 87 0 l 87 147 l 205 147 l 205 0 l 87 0 m 550 0 l 550 147 l 668 147 l 668 0 l 550 0 m 1014 0 l 1014 147 l 1132 147 l 1132 0 l 1014 0 z "}," ":{"ha":939,"x_min":0,"x_max":0,"o":""},"À":{"ha":961,"x_min":16,"x_max":947,"o":"m 700 358 l 498 903 l 485 903 l 520 1010 l 572 1010 l 947 0 l 832 0 l 736 258 l 274 258 l 307 358 l 700 358 m 131 0 l 16 0 l 389 1010 l 481 1010 l 157 71 l 131 0 m 503 1097 l 321 1333 l 424 1333 l 566 1097 l 503 1097 z "},"Ã":{"ha":961,"x_min":16,"x_max":947,"o":"m 700 358 l 498 903 l 485 903 l 520 1010 l 572 1010 l 947 0 l 832 0 l 736 258 l 274 258 l 307 358 l 700 358 m 131 0 l 16 0 l 389 1010 l 481 1010 l 157 71 l 131 0 m 677 1275 q 627 1183 659 1214 q 547 1153 594 1153 q 527 1155 538 1153 q 503 1160 515 1156 l 438 1179 q 418 1184 426 1183 q 401 1186 410 1186 q 366 1173 382 1186 q 339 1137 350 1160 l 285 1137 q 334 1228 300 1196 q 417 1259 368 1259 q 437 1258 428 1259 q 453 1254 446 1257 l 519 1233 q 537 1228 527 1230 q 556 1226 547 1226 q 595 1238 579 1226 q 621 1275 611 1250 l 677 1275 z "},"Õ":{"ha":1035,"x_min":90,"x_max":946,"o":"m 473 917 q 336 905 377 916 q 260 867 292 894 q 218 797 230 841 q 205 647 205 753 l 205 361 q 218 212 205 255 q 260 143 230 169 q 336 104 292 116 q 473 93 377 94 l 473 -12 l 454 -12 q 170 64 250 -12 q 90 334 90 140 l 90 676 q 170 946 90 869 q 454 1022 250 1022 l 473 1022 l 473 917 m 545 93 l 549 93 q 700 104 655 93 q 777 143 745 116 q 818 210 806 168 q 829 361 829 252 l 829 648 q 817 799 829 755 q 775 868 805 842 q 700 906 744 895 q 549 917 656 917 l 545 917 l 545 1022 l 582 1022 q 867 947 788 1022 q 946 676 946 871 l 946 334 q 866 64 946 140 q 582 -12 785 -12 l 545 -12 l 545 93 m 714 1275 q 664 1183 696 1214 q 585 1153 631 1153 q 564 1155 575 1153 q 540 1160 553 1156 l 475 1179 q 455 1184 463 1183 q 439 1186 447 1186 q 404 1173 420 1186 q 376 1137 387 1160 l 322 1137 q 371 1228 337 1196 q 454 1259 405 1259 q 474 1258 465 1259 q 490 1254 483 1257 l 556 1233 q 574 1228 564 1230 q 593 1226 585 1226 q 632 1238 616 1226 q 659 1275 648 1250 l 714 1275 z "},"Œ":{"ha":1594,"x_min":90,"x_max":1537,"o":"m 205 672 l 205 338 q 216 199 205 238 q 254 138 227 160 q 323 103 283 113 q 461 93 364 93 l 574 93 q 711 103 671 93 q 781 138 751 113 q 819 199 808 160 q 829 338 829 238 l 829 672 q 819 811 829 772 q 781 872 808 850 q 711 907 751 897 q 574 917 671 917 l 461 917 q 323 907 364 917 q 254 872 283 897 q 216 811 227 850 q 205 672 205 772 m 829 0 l 829 92 q 739 12 793 35 q 582 -12 684 -12 l 454 -12 q 170 64 250 -12 q 90 334 90 140 l 90 676 q 170 946 90 869 q 454 1022 250 1022 l 582 1022 q 740 998 684 1022 q 829 918 795 975 l 829 1010 l 1537 1010 l 1537 903 l 940 903 l 940 572 l 1521 572 l 1521 469 l 940 469 l 940 106 l 1537 106 l 1537 0 l 829 0 z "},"œ":{"ha":1293,"x_min":81,"x_max":1213,"o":"m 697 427 l 1103 427 l 1103 454 q 1067 591 1103 555 q 925 627 1031 627 l 875 627 q 733 591 769 627 q 697 454 697 555 l 697 427 m 368 -9 q 144 53 208 -9 q 81 272 81 115 l 81 441 q 144 661 81 599 q 367 724 208 724 l 416 724 q 563 704 512 724 q 647 637 613 684 q 728 704 677 684 q 875 724 778 724 l 925 724 q 1149 661 1085 724 q 1213 441 1213 599 l 1213 334 l 697 333 q 696 309 696 321 q 696 273 696 296 q 731 124 696 162 q 875 86 767 86 l 925 86 q 1057 114 1020 86 q 1101 210 1095 141 l 1210 210 q 1135 42 1202 94 q 925 -9 1069 -9 l 875 -9 q 726 11 777 -9 q 646 78 676 31 q 564 10 613 30 q 418 -9 515 -9 l 368 -9 m 595 296 l 595 418 q 561 590 595 553 q 416 627 526 627 l 367 627 q 224 590 258 627 q 191 418 191 553 l 191 296 q 224 123 191 159 q 367 86 258 86 l 416 86 q 560 123 526 86 q 595 296 595 161 z "},"–":{"ha":694,"x_min":0,"x_max":694,"o":"m 0 340 l 0 411 l 694 411 l 694 340 l 0 340 z "},"—":{"ha":1389,"x_min":0,"x_max":1389,"o":"m 0 411 l 1389 411 l 1389 340 l 0 340 l 0 411 z "},"“":{"ha":682,"x_min":168,"x_max":514,"o":"m 514 873 l 514 733 l 401 733 l 401 903 q 431 982 401 954 q 514 1010 460 1010 l 513 950 q 477 937 488 947 q 467 903 467 926 l 467 873 l 514 873 m 279 873 l 279 733 l 168 733 l 168 903 q 197 982 168 954 q 279 1010 225 1010 l 279 950 q 243 937 254 947 q 233 903 233 926 l 233 873 l 279 873 z "},"”":{"ha":682,"x_min":168,"x_max":513,"o":"m 168 869 l 168 1010 l 279 1010 l 279 840 q 251 761 279 789 q 168 733 222 733 l 168 793 q 203 806 193 795 q 214 840 214 817 l 214 869 l 168 869 m 401 869 l 401 1010 l 513 1010 l 513 840 q 484 761 513 789 q 401 733 455 733 l 401 793 q 436 806 426 795 q 447 840 447 817 l 447 869 l 401 869 z "},"‘":{"ha":450,"x_min":170,"x_max":281,"o":"m 281 873 l 281 733 l 170 733 l 170 903 q 198 982 170 954 q 281 1010 227 1010 l 280 950 q 245 937 255 947 q 235 903 235 926 l 235 873 l 281 873 z "},"’":{"ha":450,"x_min":170,"x_max":281,"o":"m 170 869 l 170 1010 l 281 1010 l 281 840 q 252 761 281 789 q 170 733 223 733 l 170 793 q 204 806 194 795 q 215 840 215 817 l 215 869 l 170 869 z "},"÷":{"ha":1157,"x_min":172,"x_max":985,"o":"m 579 248 q 631 227 610 248 q 652 175 652 205 q 631 124 652 145 q 579 103 610 103 q 528 124 549 103 q 507 175 507 145 q 528 226 507 205 q 579 248 549 248 m 985 447 l 985 380 l 172 380 l 172 447 l 985 447 m 579 726 q 630 705 609 726 q 652 653 652 683 q 631 602 652 623 q 579 581 610 581 q 528 601 549 581 q 507 653 507 622 q 529 705 507 683 q 579 726 550 726 z "},"◊":{"ha":686,"x_min":4,"x_max":682,"o":"m 343 956 l 82 401 l 343 -158 l 604 401 l 343 956 m 343 1121 l 682 401 l 343 -323 l 4 401 l 343 1121 z "},"ÿ":{"ha":677,"x_min":32,"x_max":665,"o":"m 32 714 l 138 714 l 350 100 l 561 714 l 665 714 l 396 -62 q 306 -233 352 -189 q 183 -278 260 -278 q 158 -277 172 -278 q 127 -273 144 -276 l 128 -180 q 140 -181 133 -181 q 160 -182 147 -182 q 236 -160 209 -182 q 286 -74 262 -138 l 313 0 l 281 0 l 32 714 m 400 850 l 400 961 l 496 961 l 496 850 l 400 850 m 182 850 l 182 961 l 278 961 l 278 850 l 182 850 z "},"Ÿ":{"ha":827,"x_min":-60,"x_max":885,"o":"m 468 0 l 358 0 l 358 447 l -60 1010 l 72 1010 l 412 539 l 753 1010 l 885 1010 l 468 449 l 468 0 m 475 1148 l 475 1259 l 570 1259 l 570 1148 l 475 1148 m 257 1148 l 257 1259 l 353 1259 l 353 1148 l 257 1148 z "},"∕":{"ha":232,"x_min":-232,"x_max":463,"o":"m -232 -12 l 357 1022 l 463 1022 l -125 -12 l -232 -12 z "},"¤":{"ha":842,"x_min":61,"x_max":782,"o":"m 640 602 q 576 755 640 692 q 422 819 513 819 q 267 755 332 819 q 201 602 201 691 q 267 446 201 511 q 422 380 332 380 q 576 446 513 380 q 640 602 640 511 m 244 821 q 329 867 285 852 q 421 882 372 882 q 515 866 470 882 q 599 821 560 851 l 737 960 l 782 916 l 643 777 q 688 692 673 736 q 703 600 703 647 q 688 509 703 553 q 643 425 673 465 l 782 285 l 737 240 l 599 379 q 514 333 559 349 q 421 318 469 318 q 330 333 373 318 q 244 379 286 348 l 106 240 l 61 285 l 200 425 q 154 510 170 467 q 139 600 139 554 q 154 691 139 646 q 200 777 170 735 l 61 916 l 106 960 l 244 821 z "},"‹":{"ha":428,"x_min":66,"x_max":350,"o":"m 350 144 l 233 144 l 66 357 l 233 570 l 350 570 l 182 357 l 350 144 z "},"›":{"ha":428,"x_min":78,"x_max":361,"o":"m 78 144 l 245 357 l 78 570 l 195 570 l 361 357 l 195 144 l 78 144 z "},"":{"ha":781,"x_min":32,"x_max":671,"o":"m 564 885 l 564 1004 l 671 1004 l 671 885 l 564 885 m 564 0 l 564 714 l 671 714 l 671 0 l 564 0 m 32 624 l 32 714 l 132 714 q 131 733 132 722 q 131 762 131 743 q 179 954 131 899 q 345 1010 227 1010 q 404 1008 375 1010 q 463 1004 433 1007 l 463 908 q 438 909 454 909 q 374 911 391 911 q 264 886 292 911 q 237 762 237 861 l 237 714 l 463 714 l 463 624 l 237 624 l 237 0 l 132 0 l 132 624 l 32 624 z "},"":{"ha":781,"x_min":32,"x_max":671,"o":"m 564 0 l 564 1004 l 671 1004 l 671 0 l 564 0 m 32 624 l 32 714 l 132 714 q 131 733 132 722 q 131 762 131 743 q 179 954 131 899 q 345 1010 227 1010 q 404 1008 375 1010 q 463 1004 433 1007 l 463 908 q 438 909 454 909 q 374 911 391 911 q 264 886 292 911 q 237 762 237 861 l 237 714 l 463 714 l 463 624 l 237 624 l 237 0 l 132 0 l 132 624 l 32 624 z "},"‡":{"ha":694,"x_min":94,"x_max":600,"o":"m 400 1010 l 400 779 l 600 779 l 600 684 l 400 684 l 400 328 l 600 328 l 600 232 l 400 232 l 400 0 l 294 0 l 294 232 l 94 232 l 94 328 l 294 328 l 294 684 l 94 684 l 94 779 l 294 779 l 294 1010 l 400 1010 z "},"·":{"ha":469,"x_min":154,"x_max":315,"o":"m 154 539 q 178 596 154 572 q 235 619 201 619 q 292 596 268 619 q 315 539 315 572 q 292 483 315 506 q 235 460 269 460 q 178 483 201 460 q 154 539 154 506 z "},"‚":{"ha":450,"x_min":170,"x_max":281,"o":"m 170 0 l 170 140 l 281 140 l 281 -29 q 252 -109 281 -81 q 170 -136 223 -136 l 170 -77 q 204 -64 194 -75 q 215 -29 215 -53 l 215 0 l 170 0 z "},"„":{"ha":682,"x_min":168,"x_max":513,"o":"m 168 0 l 168 140 l 279 140 l 279 -29 q 251 -109 279 -81 q 168 -136 222 -136 l 168 -77 q 203 -64 193 -75 q 214 -29 214 -53 l 214 0 l 168 0 m 401 0 l 401 140 l 513 140 l 513 -29 q 484 -109 513 -81 q 401 -136 455 -136 l 401 -77 q 436 -64 426 -75 q 447 -29 447 -53 l 447 0 l 401 0 z "},"‰":{"ha":1855,"x_min":50,"x_max":1805,"o":"m 1544 79 l 1594 79 q 1693 104 1670 79 q 1716 225 1716 130 l 1716 396 q 1692 518 1716 492 q 1594 543 1668 543 l 1544 543 q 1446 518 1470 543 q 1422 396 1422 492 l 1422 225 q 1445 104 1422 129 q 1544 79 1468 79 m 1539 -12 q 1378 35 1423 -12 q 1332 204 1332 83 l 1332 416 q 1378 585 1332 537 q 1539 633 1424 633 l 1600 633 q 1760 586 1714 633 q 1805 416 1805 538 l 1805 204 q 1760 35 1805 82 q 1600 -12 1715 -12 l 1539 -12 m 257 376 q 96 424 141 376 q 50 591 50 471 l 50 806 q 96 974 50 926 q 257 1022 142 1022 l 318 1022 q 478 975 433 1022 q 524 806 524 928 l 524 591 q 478 423 524 469 q 318 376 433 376 l 257 376 m 949 79 l 997 79 q 1097 105 1074 79 q 1121 225 1121 130 l 1121 396 q 1097 517 1121 492 q 997 543 1072 543 l 949 543 q 850 517 874 543 q 825 396 825 492 l 825 225 q 849 105 825 130 q 949 79 872 79 m 262 468 l 313 468 q 411 493 388 468 q 435 614 435 518 l 435 785 q 411 906 435 881 q 313 932 387 932 l 262 932 q 163 906 188 932 q 139 785 139 880 l 139 614 q 162 493 139 519 q 262 468 186 468 m 942 -12 q 781 35 827 -12 q 736 204 736 83 l 736 416 q 782 586 736 538 q 942 633 827 633 l 1003 633 q 1164 586 1118 633 q 1210 416 1210 538 l 1210 204 q 1164 35 1210 82 q 1003 -12 1118 -12 l 942 -12 m 403 -12 l 760 1022 l 856 1022 l 498 -12 l 403 -12 z "},"Â":{"ha":961,"x_min":16,"x_max":947,"o":"m 700 358 l 498 903 l 485 903 l 520 1010 l 572 1010 l 947 0 l 832 0 l 736 258 l 274 258 l 307 358 l 700 358 m 131 0 l 16 0 l 389 1010 l 481 1010 l 157 71 l 131 0 m 294 1097 l 429 1333 l 532 1333 l 668 1097 l 606 1097 l 481 1275 l 356 1097 l 294 1097 z "},"Ê":{"ha":888,"x_min":122,"x_max":831,"o":"m 122 0 l 122 1010 l 831 1010 l 831 903 l 233 903 l 233 572 l 814 572 l 814 469 l 233 469 l 233 106 l 831 106 l 831 0 l 122 0 m 310 1097 l 446 1333 l 549 1333 l 684 1097 l 622 1097 l 497 1275 l 372 1097 l 310 1097 z "},"Á":{"ha":961,"x_min":16,"x_max":947,"o":"m 700 358 l 498 903 l 485 903 l 520 1010 l 572 1010 l 947 0 l 832 0 l 736 258 l 274 258 l 307 358 l 700 358 m 131 0 l 16 0 l 389 1010 l 481 1010 l 157 71 l 131 0 m 458 1097 l 396 1097 l 538 1333 l 641 1333 l 458 1097 z "},"Ë":{"ha":888,"x_min":122,"x_max":831,"o":"m 122 0 l 122 1010 l 831 1010 l 831 903 l 233 903 l 233 572 l 814 572 l 814 469 l 233 469 l 233 106 l 831 106 l 831 0 l 122 0 m 558 1148 l 558 1259 l 654 1259 l 654 1148 l 558 1148 m 340 1148 l 340 1259 l 436 1259 l 436 1148 l 340 1148 z "},"È":{"ha":888,"x_min":122,"x_max":831,"o":"m 122 0 l 122 1010 l 831 1010 l 831 903 l 233 903 l 233 572 l 814 572 l 814 469 l 233 469 l 233 106 l 831 106 l 831 0 l 122 0 m 519 1097 l 337 1333 l 440 1333 l 582 1097 l 519 1097 z "},"Í":{"ha":357,"x_min":94,"x_max":339,"o":"m 122 0 l 122 1010 l 235 1010 l 235 0 l 122 0 m 157 1097 l 94 1097 l 236 1333 l 339 1333 l 157 1097 z "},"Î":{"ha":357,"x_min":-8,"x_max":366,"o":"m 122 0 l 122 1010 l 235 1010 l 235 0 l 122 0 m -8 1097 l 127 1333 l 231 1333 l 366 1097 l 304 1097 l 179 1275 l 54 1097 l -8 1097 z "},"Ï":{"ha":357,"x_min":22,"x_max":336,"o":"m 122 0 l 122 1010 l 235 1010 l 235 0 l 122 0 m 240 1148 l 240 1259 l 336 1259 l 336 1148 l 240 1148 m 22 1148 l 22 1259 l 118 1259 l 118 1148 l 22 1148 z "},"Ì":{"ha":357,"x_min":19,"x_max":264,"o":"m 122 0 l 122 1010 l 235 1010 l 235 0 l 122 0 m 201 1097 l 19 1333 l 122 1333 l 264 1097 l 201 1097 z "},"Ó":{"ha":1035,"x_min":90,"x_max":946,"o":"m 473 917 q 336 905 377 916 q 260 867 292 894 q 218 797 230 841 q 205 647 205 753 l 205 361 q 218 212 205 255 q 260 143 230 169 q 336 104 292 116 q 473 93 377 94 l 473 -12 l 454 -12 q 170 64 250 -12 q 90 334 90 140 l 90 676 q 170 946 90 869 q 454 1022 250 1022 l 473 1022 l 473 917 m 545 93 l 549 93 q 700 104 655 93 q 777 143 745 116 q 818 210 806 168 q 829 361 829 252 l 829 648 q 817 799 829 755 q 775 868 805 842 q 700 906 744 895 q 549 917 656 917 l 545 917 l 545 1022 l 582 1022 q 867 947 788 1022 q 946 676 946 871 l 946 334 q 866 64 946 140 q 582 -12 785 -12 l 545 -12 l 545 93 m 496 1097 l 433 1097 l 575 1333 l 678 1333 l 496 1097 z "},"Ô":{"ha":1035,"x_min":90,"x_max":946,"o":"m 473 917 q 336 905 377 916 q 260 867 292 894 q 218 797 230 841 q 205 647 205 753 l 205 361 q 218 212 205 255 q 260 143 230 169 q 336 104 292 116 q 473 93 377 94 l 473 -12 l 454 -12 q 170 64 250 -12 q 90 334 90 140 l 90 676 q 170 946 90 869 q 454 1022 250 1022 l 473 1022 l 473 917 m 545 93 l 549 93 q 700 104 655 93 q 777 143 745 116 q 818 210 806 168 q 829 361 829 252 l 829 648 q 817 799 829 755 q 775 868 805 842 q 700 906 744 895 q 549 917 656 917 l 545 917 l 545 1022 l 582 1022 q 867 947 788 1022 q 946 676 946 871 l 946 334 q 866 64 946 140 q 582 -12 785 -12 l 545 -12 l 545 93 m 331 1097 l 467 1333 l 570 1333 l 705 1097 l 643 1097 l 518 1275 l 393 1097 l 331 1097 z "},"":{"ha":1097,"x_min":77,"x_max":1021,"o":"m 567 825 q 566 834 566 829 q 566 850 566 840 q 630 1005 566 934 q 790 1095 694 1077 q 791 1079 791 1088 q 791 1053 791 1070 q 721 893 791 964 q 583 823 651 823 l 578 823 q 573 824 576 823 q 567 825 570 825 m 1021 273 q 882 41 943 106 q 743 -24 820 -24 q 654 -1 709 -24 q 571 21 599 21 q 482 -1 541 21 q 396 -24 424 -24 q 309 6 353 -24 q 221 96 265 36 q 114 296 152 191 q 77 500 77 401 q 161 742 77 648 q 380 835 246 835 q 486 812 427 835 q 570 789 545 789 q 652 812 593 789 q 755 835 711 835 q 890 808 831 835 q 999 725 950 781 q 896 626 930 681 q 863 503 863 572 q 903 367 863 426 q 1021 273 944 308 z "},"Ò":{"ha":1035,"x_min":90,"x_max":946,"o":"m 473 917 q 336 905 377 916 q 260 867 292 894 q 218 797 230 841 q 205 647 205 753 l 205 361 q 218 212 205 255 q 260 143 230 169 q 336 104 292 116 q 473 93 377 94 l 473 -12 l 454 -12 q 170 64 250 -12 q 90 334 90 140 l 90 676 q 170 946 90 869 q 454 1022 250 1022 l 473 1022 l 473 917 m 545 93 l 549 93 q 700 104 655 93 q 777 143 745 116 q 818 210 806 168 q 829 361 829 252 l 829 648 q 817 799 829 755 q 775 868 805 842 q 700 906 744 895 q 549 917 656 917 l 545 917 l 545 1022 l 582 1022 q 867 947 788 1022 q 946 676 946 871 l 946 334 q 866 64 946 140 q 582 -12 785 -12 l 545 -12 l 545 93 m 541 1097 l 358 1333 l 461 1333 l 603 1097 l 541 1097 z "},"Ú":{"ha":1039,"x_min":113,"x_max":926,"o":"m 113 1010 l 225 1010 l 225 347 q 236 211 225 250 q 272 149 246 172 q 337 114 299 124 q 467 104 374 104 l 572 104 q 703 114 665 104 q 768 149 741 124 q 804 210 793 172 q 814 347 814 249 l 814 1010 l 926 1010 l 926 334 q 850 64 926 140 q 581 -12 774 -12 l 458 -12 q 189 64 265 -12 q 113 334 113 140 l 113 1010 m 497 1097 l 435 1097 l 576 1333 l 680 1333 l 497 1097 z "},"Û":{"ha":1039,"x_min":113,"x_max":926,"o":"m 113 1010 l 225 1010 l 225 347 q 236 211 225 250 q 272 149 246 172 q 337 114 299 124 q 467 104 374 104 l 572 104 q 703 114 665 104 q 768 149 741 124 q 804 210 793 172 q 814 347 814 249 l 814 1010 l 926 1010 l 926 334 q 850 64 926 140 q 581 -12 774 -12 l 458 -12 q 189 64 265 -12 q 113 334 113 140 l 113 1010 m 332 1097 l 468 1333 l 571 1333 l 707 1097 l 644 1097 l 519 1275 l 395 1097 l 332 1097 z "},"Ù":{"ha":1039,"x_min":113,"x_max":926,"o":"m 113 1010 l 225 1010 l 225 347 q 236 211 225 250 q 272 149 246 172 q 337 114 299 124 q 467 104 374 104 l 572 104 q 703 114 665 104 q 768 149 741 124 q 804 210 793 172 q 814 347 814 249 l 814 1010 l 926 1010 l 926 334 q 850 64 926 140 q 581 -12 774 -12 l 458 -12 q 189 64 265 -12 q 113 334 113 140 l 113 1010 m 542 1097 l 359 1333 l 463 1333 l 604 1097 l 542 1097 z "},"ı":{"ha":325,"x_min":110,"x_max":215,"o":"m 110 0 l 110 714 l 215 714 l 215 0 l 110 0 z "},"ˆ":{"ha":694,"x_min":160,"x_max":534,"o":"m 160 799 l 296 1035 l 399 1035 l 534 799 l 472 799 l 347 977 l 222 799 l 160 799 z "},"˜":{"ha":694,"x_min":151,"x_max":543,"o":"m 543 977 q 493 885 526 916 q 414 854 460 854 q 393 856 404 854 q 369 861 382 858 l 304 880 q 284 886 292 884 q 268 888 276 888 q 233 875 249 888 q 205 839 216 862 l 151 839 q 200 929 166 898 q 283 961 234 961 q 303 960 294 961 q 319 956 312 958 l 385 935 q 404 930 393 932 q 422 928 414 928 q 461 940 446 928 q 488 977 477 951 l 543 977 z "},"¯":{"ha":694,"x_min":174,"x_max":521,"o":"m 174 867 l 174 946 l 521 946 l 521 867 l 174 867 z "},"˘":{"ha":694,"x_min":161,"x_max":533,"o":"m 161 1006 l 215 1006 q 251 930 219 954 q 347 907 283 907 q 443 930 412 907 q 478 1006 473 954 l 533 1006 q 483 870 527 913 q 347 828 438 828 q 213 871 258 828 q 161 1006 168 914 z "},"˙":{"ha":694,"x_min":296,"x_max":399,"o":"m 296 847 l 296 965 l 399 965 l 399 847 l 296 847 z "},"˚":{"ha":694,"x_min":184,"x_max":511,"o":"m 245 925 q 275 853 245 882 q 347 823 304 823 q 419 853 389 823 q 449 925 449 883 q 419 997 449 968 q 347 1026 390 1026 q 275 997 304 1026 q 245 925 245 968 m 184 925 q 232 1042 184 994 q 347 1089 279 1089 q 464 1041 416 1089 q 511 925 511 994 q 464 809 511 857 q 347 762 416 762 q 232 809 279 762 q 184 925 184 857 z "},"¸":{"ha":694,"x_min":220,"x_max":500,"o":"m 354 0 l 354 -78 l 397 -78 q 481 -96 462 -78 q 500 -189 500 -115 q 482 -291 500 -271 q 399 -311 464 -311 l 220 -311 l 220 -252 l 364 -252 q 408 -242 400 -252 q 416 -186 416 -233 q 409 -135 416 -144 q 363 -125 402 -125 l 310 -125 l 310 0 l 354 0 z "},"˝":{"ha":694,"x_min":228,"x_max":591,"o":"m 387 799 l 501 1035 l 591 1035 l 437 799 l 387 799 m 228 799 l 329 1035 l 419 1035 l 278 799 l 228 799 z "},"˛":{"ha":694,"x_min":221,"x_max":404,"o":"m 399 0 l 326 -122 q 311 -153 315 -142 q 307 -174 307 -164 q 313 -194 307 -188 q 334 -200 319 -200 l 404 -200 l 404 -273 l 296 -273 q 237 -260 253 -273 q 221 -214 221 -248 q 229 -176 221 -196 q 252 -136 236 -157 l 353 0 l 399 0 z "},"ˇ":{"ha":694,"x_min":160,"x_max":534,"o":"m 160 1035 l 222 1035 l 347 857 l 472 1035 l 534 1035 l 399 799 l 296 799 l 160 1035 z "},"Ł":{"ha":829,"x_min":14,"x_max":804,"o":"m 122 0 l 122 436 l 14 361 l 14 476 l 122 553 l 122 1010 l 232 1010 l 232 612 l 473 781 l 473 667 l 232 497 l 232 106 l 804 106 l 804 0 l 122 0 z "},"ł":{"ha":367,"x_min":25,"x_max":375,"o":"m 147 0 l 147 528 l 25 441 l 25 550 l 147 636 l 147 1010 l 253 1010 l 253 694 l 375 781 l 375 672 l 253 586 l 253 0 l 147 0 z "},"Š":{"ha":990,"x_min":94,"x_max":893,"o":"m 94 329 l 207 329 l 207 310 q 220 177 207 220 q 265 117 234 134 q 340 97 290 103 q 550 92 391 92 q 684 103 636 92 q 754 139 731 114 q 773 185 767 153 q 779 273 779 218 q 756 415 779 386 q 667 449 734 444 l 355 473 q 162 543 216 484 q 109 742 109 602 q 126 884 109 830 q 183 972 144 937 q 269 1011 214 1000 q 463 1022 323 1022 l 498 1022 q 717 1007 654 1022 q 823 956 781 992 q 866 886 852 931 q 880 774 880 841 q 880 744 880 754 q 879 725 880 733 l 766 725 l 766 750 q 760 835 766 806 q 739 879 753 865 q 664 908 718 900 q 460 917 610 917 q 264 882 304 917 q 224 741 224 846 q 250 621 224 654 q 351 582 276 588 l 668 555 q 843 487 793 545 q 893 293 893 429 q 880 144 893 194 q 838 61 867 94 q 739 3 801 20 q 513 -14 677 -14 l 463 -14 q 265 1 323 -14 q 168 50 207 15 q 112 138 130 83 q 94 279 94 194 l 94 329 m 309 1333 l 371 1333 l 496 1156 l 621 1333 l 683 1333 l 547 1097 l 444 1097 l 309 1333 z "},"š":{"ha":810,"x_min":83,"x_max":707,"o":"m 83 212 l 191 212 l 191 196 q 231 105 191 130 q 395 81 272 81 q 564 106 532 81 q 596 203 596 131 q 570 296 596 273 q 439 325 544 319 q 335 329 401 327 q 164 349 191 333 q 106 410 123 371 q 89 521 89 448 q 149 682 89 640 q 415 724 210 724 q 631 684 574 724 q 688 543 688 644 l 582 543 l 582 550 q 541 615 582 597 q 378 633 500 633 q 227 612 260 633 q 195 521 195 590 q 201 462 195 479 q 222 436 207 445 q 363 416 254 419 q 406 415 391 416 q 547 406 496 412 q 619 390 597 400 q 687 328 667 368 q 707 210 707 287 q 687 90 707 131 q 616 18 667 50 q 541 -3 593 3 q 396 -9 489 -9 q 145 34 206 -9 q 83 193 83 78 l 83 212 m 218 1035 l 281 1035 l 406 857 l 530 1035 l 593 1035 l 457 799 l 354 799 l 218 1035 z "},"Ž":{"ha":903,"x_min":65,"x_max":832,"o":"m 65 0 l 65 121 l 714 909 l 94 909 l 94 1010 l 832 1010 l 832 892 l 187 106 l 832 106 l 832 0 l 65 0 m 264 1333 l 327 1333 l 452 1156 l 576 1333 l 639 1333 l 503 1097 l 400 1097 l 264 1333 z "},"ž":{"ha":717,"x_min":81,"x_max":652,"o":"m 81 0 l 81 115 l 522 616 l 102 616 l 102 714 l 652 714 l 652 615 l 195 96 l 652 96 l 652 0 l 81 0 m 171 1035 l 233 1035 l 358 857 l 483 1035 l 545 1035 l 410 799 l 307 799 l 171 1035 z "},"¦":{"ha":694,"x_min":311,"x_max":385,"o":"m 385 277 l 385 -237 l 311 -237 l 311 277 l 385 277 m 385 971 l 385 457 l 311 457 l 311 971 l 385 971 z "},"Ð":{"ha":1074,"x_min":0,"x_max":985,"o":"m 265 100 l 625 100 q 819 149 770 100 q 868 338 868 198 l 868 664 q 819 860 868 811 q 625 909 770 909 l 265 909 l 265 578 l 568 578 l 568 481 l 265 481 l 265 100 m 154 0 l 154 481 l 0 481 l 0 578 l 154 578 l 154 1010 l 642 1010 q 908 935 831 1010 q 985 672 985 859 l 985 339 q 908 76 985 151 q 642 0 831 0 l 154 0 z "},"ð":{"ha":785,"x_min":81,"x_max":704,"o":"m 416 627 l 367 627 q 224 590 258 627 q 191 418 191 553 l 191 296 q 224 123 191 159 q 367 86 258 86 l 416 86 q 561 123 526 86 q 595 296 595 160 l 595 418 q 544 568 595 509 q 416 627 493 627 m 467 868 l 241 796 l 212 873 l 408 937 l 355 1010 l 468 1010 l 503 965 l 642 1011 l 672 935 l 561 897 q 669 679 635 790 q 704 441 704 568 l 704 272 q 641 53 704 115 q 418 -9 577 -9 l 368 -9 q 144 53 208 -9 q 81 272 81 115 l 81 441 q 144 661 81 599 q 367 724 208 724 l 407 724 q 503 701 460 724 q 583 631 546 679 q 537 750 566 690 q 467 868 508 809 z "},"Ý":{"ha":827,"x_min":-60,"x_max":885,"o":"m 468 0 l 358 0 l 358 447 l -60 1010 l 72 1010 l 412 539 l 753 1010 l 885 1010 l 468 449 l 468 0 m 391 1097 l 329 1097 l 471 1333 l 574 1333 l 391 1097 z "},"ý":{"ha":677,"x_min":32,"x_max":665,"o":"m 32 714 l 138 714 l 350 100 l 561 714 l 665 714 l 396 -62 q 306 -233 352 -189 q 183 -278 260 -278 q 158 -277 172 -278 q 127 -273 144 -276 l 128 -180 q 140 -181 133 -181 q 160 -182 147 -182 q 236 -160 209 -182 q 286 -74 262 -138 l 313 0 l 281 0 l 32 714 m 317 799 l 254 799 l 396 1035 l 499 1035 l 317 799 z "},"Þ":{"ha":909,"x_min":122,"x_max":846,"o":"m 233 707 l 233 302 l 546 302 q 694 331 659 302 q 729 431 729 359 l 729 579 q 695 680 729 653 q 546 707 661 707 l 233 707 m 122 1010 l 233 1010 l 233 814 l 547 814 q 782 763 718 814 q 846 583 846 713 l 846 429 q 783 247 846 297 q 547 196 720 196 l 233 196 l 233 0 l 122 0 l 122 1010 z "},"þ":{"ha":798,"x_min":111,"x_max":717,"o":"m 216 415 l 216 298 q 268 137 216 187 q 435 86 320 86 q 573 123 538 86 q 607 296 607 161 l 607 418 q 572 591 607 554 q 424 628 537 628 q 267 576 318 628 q 216 415 216 524 m 212 1010 l 212 603 q 293 694 237 665 q 439 724 348 724 q 654 661 591 724 q 717 441 717 597 l 717 272 q 654 54 717 117 q 439 -9 591 -9 q 298 17 350 -9 q 216 102 245 43 l 216 -273 l 111 -273 l 111 1010 l 212 1010 z "},"−":{"ha":1157,"x_min":172,"x_max":985,"o":"m 985 447 l 985 380 l 172 380 l 172 447 l 985 447 z "},"×":{"ha":1157,"x_min":207,"x_max":954,"o":"m 581 461 l 907 787 l 954 741 l 628 414 l 954 87 l 907 40 l 581 367 l 254 40 l 207 87 l 533 414 l 207 741 l 254 787 l 581 461 z "},"¹":{"ha":619,"x_min":125,"x_max":400,"o":"m 328 404 l 328 950 l 171 807 l 125 847 l 304 1010 l 400 1010 l 400 404 l 328 404 z "},"²":{"ha":619,"x_min":66,"x_max":557,"o":"m 66 404 l 66 507 q 75 582 66 554 q 102 629 83 609 q 146 661 119 648 q 233 689 173 674 l 385 726 q 442 746 420 736 q 472 768 464 757 q 481 790 478 776 q 484 847 484 805 q 477 910 484 892 q 455 938 471 927 q 402 951 442 947 q 292 956 361 956 q 170 936 196 956 q 143 854 143 917 l 143 818 l 66 818 l 66 859 q 114 983 66 948 q 296 1018 162 1018 q 412 1015 372 1018 q 471 1003 451 1011 q 538 951 520 983 q 557 842 557 920 q 529 722 557 756 q 424 668 501 688 l 237 621 q 160 587 178 605 q 143 534 143 570 l 143 468 l 557 468 l 557 404 l 66 404 z "},"³":{"ha":619,"x_min":65,"x_max":558,"o":"m 65 606 l 139 606 l 139 551 q 170 479 139 498 q 315 460 201 460 q 427 467 396 460 q 471 492 457 474 q 480 521 477 501 q 484 589 484 541 q 458 664 484 645 q 367 682 433 682 l 265 682 l 265 743 l 357 743 q 447 764 423 743 q 471 851 471 785 q 466 913 471 897 q 449 937 461 928 q 402 950 437 946 q 301 954 368 954 q 178 938 205 954 q 151 875 151 922 l 151 819 l 77 819 l 77 873 q 127 985 77 951 q 300 1018 178 1018 q 417 1014 378 1018 q 478 1000 456 1010 q 532 952 516 983 q 547 856 547 920 q 527 755 547 784 q 454 715 507 726 q 535 676 512 705 q 558 582 558 648 q 554 515 558 542 q 541 467 550 488 q 477 413 523 428 q 317 397 431 397 q 175 405 212 397 q 114 432 138 413 q 77 483 89 453 q 65 557 65 513 l 65 606 z "},"¼":{"ha":1415,"x_min":119,"x_max":1378,"o":"m 940 192 l 1210 192 l 1210 503 l 940 192 m 872 132 l 872 204 l 1183 566 l 1280 566 l 1280 192 l 1378 192 l 1378 132 l 1280 132 l 1280 0 l 1210 0 l 1210 132 l 872 132 m 359 -12 l 949 1022 l 1054 1022 l 467 -12 l 359 -12 m 313 444 l 313 954 l 163 819 l 119 859 l 290 1010 l 382 1010 l 382 444 l 313 444 z "},"½":{"ha":1415,"x_min":119,"x_max":1356,"o":"m 888 0 l 888 96 q 896 165 888 140 q 921 210 903 191 q 961 239 937 227 q 1047 267 985 251 l 1190 301 q 1246 319 1225 310 q 1274 339 1267 329 q 1283 360 1280 347 q 1286 414 1286 374 q 1280 470 1286 453 q 1258 497 1274 487 q 1210 510 1246 506 q 1101 514 1173 514 q 985 496 1010 514 q 960 422 960 479 l 960 386 l 888 386 l 888 422 q 932 540 888 507 q 1105 572 977 572 q 1216 569 1177 572 q 1274 558 1254 566 q 1338 510 1320 539 q 1356 408 1356 480 q 1329 297 1356 328 q 1227 248 1302 265 l 1050 203 q 976 170 991 186 q 960 121 960 153 l 960 60 l 1356 60 l 1356 0 l 888 0 m 359 -12 l 949 1022 l 1054 1022 l 467 -12 l 359 -12 m 313 444 l 313 954 l 163 819 l 119 859 l 290 1010 l 382 1010 l 382 444 l 313 444 z "},"¾":{"ha":1415,"x_min":62,"x_max":1378,"o":"m 940 192 l 1210 192 l 1210 503 l 940 192 m 872 132 l 872 204 l 1183 566 l 1280 566 l 1280 192 l 1378 192 l 1378 132 l 1280 132 l 1280 0 l 1210 0 l 1210 132 l 872 132 m 359 -12 l 949 1022 l 1054 1022 l 467 -12 l 359 -12 m 62 632 l 134 632 l 134 582 q 163 514 134 532 q 301 496 193 496 q 408 503 378 496 q 450 526 437 509 q 459 554 456 536 q 461 616 461 573 q 437 686 461 669 q 350 703 413 703 l 253 703 l 253 761 l 342 761 q 428 781 405 761 q 450 863 450 800 q 445 919 450 905 q 427 942 440 933 q 384 954 417 950 q 288 958 351 958 q 171 943 197 958 q 144 884 144 927 l 144 832 l 74 832 l 74 882 q 122 986 74 955 q 286 1017 170 1017 q 397 1013 359 1017 q 455 1000 435 1009 q 507 957 492 985 q 522 867 522 928 q 503 772 522 799 q 433 734 484 745 q 511 698 489 725 q 533 610 533 671 q 529 548 533 573 q 517 503 526 522 q 455 452 499 467 q 302 437 412 437 q 167 445 203 437 q 109 471 132 452 q 74 518 85 490 q 62 587 62 547 l 62 632 z "},"₣":{"ha":1474,"x_min":122,"x_max":1441,"o":"m 122 0 l 122 1010 l 753 1010 l 753 903 l 233 903 l 233 572 l 737 572 l 737 469 l 233 469 l 233 0 l 122 0 m 932 0 l 932 714 l 1034 714 l 1034 616 q 1104 698 1057 672 q 1230 724 1152 724 q 1394 667 1347 724 q 1441 468 1441 611 l 1441 463 l 1335 463 l 1335 484 q 1308 598 1335 569 q 1205 628 1280 628 q 1078 578 1117 628 q 1038 415 1038 528 l 1038 0 l 932 0 z "},"Ğ":{"ha":1019,"x_min":83,"x_max":939,"o":"m 83 676 q 163 946 83 869 q 447 1022 243 1022 l 575 1022 q 850 959 762 1022 q 939 761 939 895 l 939 718 l 823 718 l 823 730 q 770 876 823 835 q 568 917 718 917 l 479 917 q 330 905 376 917 q 253 867 285 894 q 212 800 224 842 q 200 648 200 758 l 200 361 q 212 210 200 252 q 253 143 224 168 q 329 104 285 116 q 479 93 373 93 l 568 93 q 705 103 665 93 q 774 138 745 113 q 812 201 801 161 q 823 338 823 241 l 823 400 l 543 400 l 543 503 l 939 503 l 939 334 q 859 64 939 140 q 575 -12 779 -12 l 447 -12 q 163 64 243 -12 q 83 334 83 140 l 83 676 m 324 1304 l 378 1304 q 414 1229 382 1253 q 510 1205 446 1205 q 605 1229 574 1205 q 641 1304 636 1253 l 696 1304 q 645 1169 690 1211 q 510 1126 601 1126 q 375 1170 420 1126 q 324 1304 330 1213 z "},"ğ":{"ha":817,"x_min":102,"x_max":707,"o":"m 359 627 q 245 591 275 623 q 210 418 210 553 l 210 296 q 245 124 210 161 q 359 87 275 91 l 359 -9 q 164 54 222 -5 q 102 272 102 117 l 102 441 q 164 661 102 597 q 359 724 222 720 l 359 627 m 422 87 q 550 137 507 95 q 602 298 602 187 l 602 415 q 550 578 602 527 q 422 627 507 619 l 422 722 q 526 694 484 716 q 606 603 580 665 l 606 714 l 707 714 l 707 8 q 645 -211 707 -149 q 428 -273 583 -273 l 422 -273 l 422 -176 l 428 -176 q 562 -146 522 -176 q 602 -46 602 -115 l 602 102 q 520 17 572 43 q 422 -7 481 -3 l 422 87 m 359 -273 q 175 -222 235 -270 q 102 -54 111 -172 l 210 -54 q 252 -149 216 -123 q 359 -176 283 -173 l 359 -273 m 222 1006 l 276 1006 q 312 930 280 954 q 408 907 344 907 q 504 930 473 907 q 539 1006 534 954 l 594 1006 q 544 870 588 913 q 408 828 499 828 q 274 871 319 828 q 222 1006 229 914 z "},"İ":{"ha":357,"x_min":122,"x_max":235,"o":"m 122 0 l 122 1010 l 235 1010 l 235 0 l 122 0 m 127 1145 l 127 1263 l 231 1263 l 231 1145 l 127 1145 z "},"Ş":{"ha":990,"x_min":94,"x_max":893,"o":"m 94 329 l 207 329 l 207 310 q 220 177 207 220 q 265 117 234 134 q 340 97 290 103 q 550 92 391 92 q 684 103 636 92 q 754 139 731 114 q 773 185 767 153 q 779 273 779 218 q 756 415 779 386 q 667 449 734 444 l 355 473 q 162 543 216 484 q 109 742 109 602 q 126 884 109 830 q 183 972 144 937 q 269 1011 214 1000 q 463 1022 323 1022 l 498 1022 q 717 1007 654 1022 q 823 956 781 992 q 866 886 852 931 q 880 774 880 841 q 880 744 880 754 q 879 725 880 733 l 766 725 l 766 750 q 760 835 766 806 q 739 879 753 865 q 664 908 718 900 q 460 917 610 917 q 264 882 304 917 q 224 741 224 846 q 250 621 224 654 q 351 582 276 588 l 668 555 q 843 487 793 545 q 893 293 893 429 q 880 144 893 194 q 838 61 867 94 q 739 3 801 20 q 513 -14 677 -14 l 463 -14 q 265 1 323 -14 q 168 50 207 15 q 112 138 130 83 q 94 279 94 194 l 94 329 m 503 0 l 503 -78 l 546 -78 q 629 -96 610 -78 q 648 -189 648 -115 q 630 -291 648 -271 q 547 -311 612 -311 l 368 -311 l 368 -252 l 513 -252 q 557 -242 549 -252 q 565 -186 565 -233 q 558 -135 565 -144 q 511 -125 551 -125 l 458 -125 l 458 0 l 503 0 z "},"ş":{"ha":810,"x_min":83,"x_max":707,"o":"m 83 212 l 191 212 l 191 196 q 231 105 191 130 q 395 81 272 81 q 564 106 532 81 q 596 203 596 131 q 570 296 596 273 q 439 325 544 319 q 335 329 401 327 q 164 349 191 333 q 106 410 123 371 q 89 521 89 448 q 149 682 89 640 q 415 724 210 724 q 631 684 574 724 q 688 543 688 644 l 582 543 l 582 550 q 541 615 582 597 q 378 633 500 633 q 227 612 260 633 q 195 521 195 590 q 201 462 195 479 q 222 436 207 445 q 363 416 254 419 q 406 415 391 416 q 547 406 496 412 q 619 390 597 400 q 687 328 667 368 q 707 210 707 287 q 687 90 707 131 q 616 18 667 50 q 541 -3 593 3 q 396 -9 489 -9 q 145 34 206 -9 q 83 193 83 78 l 83 212 m 412 0 l 412 -78 l 456 -78 q 539 -96 520 -78 q 558 -189 558 -115 q 540 -291 558 -271 q 457 -311 522 -311 l 278 -311 l 278 -252 l 422 -252 q 467 -242 458 -252 q 475 -186 475 -233 q 468 -135 475 -144 q 421 -125 460 -125 l 368 -125 l 368 0 l 412 0 z "},"Ć":{"ha":949,"x_min":90,"x_max":882,"o":"m 90 676 q 164 946 90 870 q 427 1022 239 1022 l 545 1022 q 806 957 731 1022 q 882 734 882 891 l 882 690 l 766 690 l 766 718 q 720 875 766 833 q 536 917 673 917 l 458 917 q 325 906 367 917 q 256 868 283 895 q 217 801 228 842 q 205 648 205 759 l 205 361 q 217 209 205 251 q 256 142 228 168 q 323 104 283 115 q 458 93 363 93 l 536 93 q 722 137 676 93 q 768 306 768 181 q 768 335 768 325 q 767 354 768 345 l 882 354 l 882 288 q 809 54 882 119 q 545 -12 736 -12 l 427 -12 q 164 64 239 -12 q 90 334 90 140 l 90 676 m 471 1097 l 408 1097 l 550 1333 l 653 1333 l 471 1097 z "},"ć":{"ha":785,"x_min":81,"x_max":704,"o":"m 368 -9 q 144 53 208 -9 q 81 272 81 115 l 81 441 q 144 661 81 599 q 367 724 208 724 l 416 724 q 634 666 568 724 q 704 475 701 608 l 595 475 q 555 594 591 562 q 416 627 519 627 l 367 627 q 224 590 258 627 q 191 418 191 553 l 191 296 q 224 123 191 159 q 367 86 258 86 l 416 86 q 558 122 521 86 q 595 252 595 157 l 595 264 l 704 264 l 704 250 q 638 51 704 111 q 418 -9 572 -9 l 368 -9 m 371 799 l 309 799 l 450 1035 l 553 1035 l 371 799 z "},"Č":{"ha":949,"x_min":90,"x_max":882,"o":"m 90 676 q 164 946 90 870 q 427 1022 239 1022 l 545 1022 q 806 957 731 1022 q 882 734 882 891 l 882 690 l 766 690 l 766 718 q 720 875 766 833 q 536 917 673 917 l 458 917 q 325 906 367 917 q 256 868 283 895 q 217 801 228 842 q 205 648 205 759 l 205 361 q 217 209 205 251 q 256 142 228 168 q 323 104 283 115 q 458 93 363 93 l 536 93 q 722 137 676 93 q 768 306 768 181 q 768 335 768 325 q 767 354 768 345 l 882 354 l 882 288 q 809 54 882 119 q 545 -12 736 -12 l 427 -12 q 164 64 239 -12 q 90 334 90 140 l 90 676 m 306 1333 l 368 1333 l 493 1156 l 618 1333 l 680 1333 l 545 1097 l 441 1097 l 306 1333 z "},"č":{"ha":785,"x_min":81,"x_max":704,"o":"m 368 -9 q 144 53 208 -9 q 81 272 81 115 l 81 441 q 144 661 81 599 q 367 724 208 724 l 416 724 q 634 666 568 724 q 704 475 701 608 l 595 475 q 555 594 591 562 q 416 627 519 627 l 367 627 q 224 590 258 627 q 191 418 191 553 l 191 296 q 224 123 191 159 q 367 86 258 86 l 416 86 q 558 122 521 86 q 595 252 595 157 l 595 264 l 704 264 l 704 250 q 638 51 704 111 q 418 -9 572 -9 l 368 -9 m 206 1035 l 269 1035 l 393 857 l 518 1035 l 581 1035 l 445 799 l 342 799 l 206 1035 z "},"đ":{"ha":798,"x_min":81,"x_max":798,"o":"m 585 110 q 505 19 559 48 q 359 -9 451 -9 q 143 53 206 -9 q 81 272 81 116 l 81 441 q 143 661 81 598 q 359 724 206 724 q 500 698 449 724 q 581 612 551 672 l 581 861 l 322 861 l 322 951 l 581 951 l 581 1010 l 686 1010 l 686 951 l 798 951 l 798 861 l 686 861 l 686 0 l 585 0 l 585 110 m 581 298 l 581 415 q 529 577 581 527 q 363 628 477 628 q 225 591 260 628 q 191 418 191 555 l 191 296 q 225 123 191 159 q 363 86 260 86 q 529 137 477 86 q 581 298 581 187 z "},"­":{"ha":559,"x_min":90,"x_max":469,"o":"m 90 329 l 90 424 l 469 424 l 469 329 l 90 329 z "},"∙":{"ha":469,"x_min":154,"x_max":315,"o":"m 154 539 q 178 596 154 572 q 235 619 201 619 q 292 596 268 619 q 315 539 315 572 q 292 483 315 506 q 235 460 269 460 q 178 483 201 460 q 154 539 154 506 z "}}}
